<svg xmlns="http://www.w3.org/2000/svg">
<defs>
<clipPath id="clip0_3003_61">
<rect width="150" height="40" fill="white"/>
</clipPath>
</defs>
<symbol id="arrow1" viewBox="0 0 10 6">
  <path stroke="currentColor" stroke-linecap="round" stroke-linejoin="round" stroke-width="2" d="M9 1 5 5 1 1"/>
</symbol>
<symbol id="arrow2" viewBox="0 0 18 15">
  <path d="M1 6.363a1 1 0 0 0 0 2v-2ZM17.707 8.07a1 1 0 0 0 0-1.414L11.343.292A1 1 0 1 0 9.93 1.706l5.657 5.657L9.93 13.02a1 1 0 0 0 1.414 1.414l6.364-6.364ZM1 7.363v1h16v-2H1v1Z"/>
</symbol>
<symbol id="arrow3" viewBox="0 0 19 11">
  <path stroke="currentColor" stroke-linecap="round" stroke-linejoin="round" d="m13.5 10.5 5-5-5-5m5 5H.5"/>
</symbol>
<symbol id="arrow4" viewBox="0 0 20 20">
  <path stroke="currentColor" stroke-linecap="round" stroke-linejoin="round" stroke-width="2" d="m11 7 3 3-3 3m3-3H6m13 0a9 9 0 1 0-18 0 9 9 0 0 0 18 0Z"/>
</symbol>
<symbol id="logo1" viewBox="0 0 150 40">
<g clip-path="url(#clip0_3003_61)">
<path d="M46.3403 26.8541H49.2062V31.0486H41.2697V28.8865C40.432 29.7514 39.4179 30.4 38.3597 30.8324C37.2574 31.2649 36.111 31.5243 34.8765 31.5243C31.8341 31.5243 29.365 30.5297 27.4249 28.5405C25.4849 26.5514 24.5149 24.0433 24.5149 20.973C24.5149 17.9892 25.4849 15.5243 27.4691 13.4919C29.4532 11.4595 31.9223 10.4648 34.8765 10.4648C36.111 10.4648 37.2133 10.6811 38.2715 11.1135C39.3297 11.546 40.3439 12.2378 41.2697 13.1027V10.9405H49.2062V15.0919H46.3403V26.8541ZM29.6295 21.0162C29.6295 22.7892 30.1586 24.2162 31.2609 25.3405C32.3632 26.4649 33.7742 27.0271 35.4937 27.0271C37.1692 27.0271 38.5802 26.4649 39.7266 25.3405C40.8289 24.2162 41.402 22.7892 41.402 21.0595C41.402 19.3297 40.8288 17.8595 39.6824 16.7352C38.5361 15.6108 37.1692 15.0054 35.4937 15.0054C33.7742 15.0054 32.3632 15.5676 31.2609 16.6919C30.2028 17.8162 29.6295 19.2433 29.6295 21.0162Z" fill="#272425"/>
<path d="M54.9823 4.19459H51.8959V0H60.0531V26.8541H63.0073V31.0054H51.8518V26.8541H54.9823V4.19459Z" fill="#272425"/>
<path d="M73.2802 13.7078C74.2063 12.67 75.2646 11.8484 76.411 11.3295C77.5573 10.7673 78.6594 10.5078 79.8058 10.5078C81.2167 10.5078 82.4073 10.8105 83.3776 11.4159C84.3474 12.0214 85.0969 12.9295 85.5818 14.097C86.5521 12.8862 87.6104 11.9781 88.7568 11.3727C89.9032 10.8105 91.1818 10.5078 92.5927 10.5078C94.8412 10.5078 96.4724 11.07 97.5308 12.1943C98.5891 13.3186 99.1183 15.0916 99.1183 17.47V26.8538H101.984V31.0484H91.2256V26.8538H94.1797V19.7186C94.1797 17.9889 93.9151 16.7781 93.3865 16.1727C92.8573 15.5673 91.9756 15.2214 90.6969 15.2214C89.8589 15.2214 89.0214 15.3943 88.3157 15.7835C87.5662 16.1295 86.8605 16.6916 86.1995 17.4267V26.8105H89.1094V31.0051H78.3948V26.8105H81.3052V19.7186C81.3052 17.9457 81.0407 16.7348 80.5115 16.1295C79.9823 15.524 79.1006 15.2214 77.7776 15.2214C76.8959 15.2214 76.0584 15.4808 75.3089 15.9565C74.5589 16.4322 73.8979 17.1673 73.2802 18.1619V26.8105H76.2344V31.0051H65.4761V26.8105H68.3422V15.1348H65.4761V10.9835H73.4568V13.7078H73.2802Z" fill="#272425"/>
<path d="M140.653 40.0006H129.189V35.806H132.407L135.097 30.487L128.263 15.1789H125.705V10.9844H136.155V15.1789H133.421L137.831 25.4708L142.372 15.1789H139.771V10.9844H150V15.1789H147.487L137.434 35.806H140.653V40.0006Z" fill="#272425"/>
<path d="M16.4021 26.7243H20.5027V31.0054H6.65786V26.7243H10.7143V4.32432H5.07055V8.77836H0V0H27.1164V8.77836H22.0899V4.32432H16.4021V26.7243Z" fill="#272425"/>
<path d="M123.677 25.5119C123.633 25.5119 123.633 25.5119 123.677 25.5119C124.339 24.1713 124.647 22.7011 124.647 21.0578C124.647 17.7713 123.148 15.9983 122.663 14.3983C122.31 13.2308 122.619 11.5875 124.78 12.02C123.501 9.90106 119.93 9.77132 118.563 12.9713C117.328 15.8686 119.356 18.3335 119.356 21.1011C119.356 22.874 118.783 24.3443 117.637 25.5119C116.49 26.6794 115.035 27.2849 113.36 27.2849C111.64 27.2849 110.229 26.6794 109.039 25.5119C107.892 24.3443 107.275 22.874 107.275 21.1011C107.275 16.7335 111.817 13.447 114.154 12.0632C117.637 9.98752 119.797 8.47404 120.988 6.87404C122.84 4.40916 121.958 1.38214 121.429 0.257812C116.622 8.12809 106.79 8.08486 103.042 15.8254C99.074 23.9551 105.247 31.6092 113.316 31.6092C115.917 31.6092 118.122 30.9605 120.018 29.6632C121.032 31.22 124.78 32.1713 126.808 29.0578C125 29.4902 122.399 28.5389 123.677 25.5119Z" fill="#D9383A"/>
</g>

</symbol>
<symbol id="star" viewBox="0 0 24 24">
<path d="M2.33496 10.3382C2.02171 10.0486 2.19187 9.52486 2.61557 9.47462L8.61914 8.76253C8.79182 8.74206 8.94181 8.63362 9.01465 8.47571L11.5469 2.98593C11.7256 2.59849 12.2764 2.59842 12.4551 2.98585L14.9873 8.4756C15.0601 8.6335 15.2092 8.74223 15.3818 8.76271L21.3857 9.47462C21.8094 9.52486 21.9791 10.0487 21.6659 10.3384L17.2278 14.4434C17.1001 14.5614 17.0433 14.7372 17.0771 14.9077L18.255 20.8374C18.3382 21.2559 17.8928 21.5801 17.5205 21.3717L12.2451 18.4181C12.0934 18.3331 11.9091 18.3335 11.7573 18.4185L6.48144 21.371C6.10913 21.5794 5.66294 21.2559 5.74609 20.8374L6.92414 14.9081C6.95803 14.7375 6.90134 14.5614 6.77367 14.4433L2.33496 10.3382Z" stroke="white" stroke-width="2" stroke-linecap="round" stroke-linejoin="round"/>
</symbol>
<symbol id="telegram" viewBox="0 0 22 18">
  <path d="M1.35 7.839s9.729-3.95 13.1-5.34c1.297-.557 5.68-2.341 5.68-2.341s2.024-.776 1.86 1.114c-.056.784-.505 3.505-.954 6.454-.678 4.175-1.412 8.739-1.412 8.739s-.106 1.284-1.07 1.502c-.954.226-2.53-.775-2.807-1.002-.229-.161-4.22-2.665-5.68-3.893-.392-.33-.85-1.001.057-1.776 2.024-1.842 4.44-4.12 5.9-5.574.678-.662 1.355-2.22-1.46-.33a454.985 454.985 0 0 1-7.934 5.29s-.897.557-2.587.056c-1.681-.5-3.648-1.17-3.648-1.17s-1.355-.833.955-1.73Z"/>
</symbol>
<symbol id="youtube" viewBox="0 0 24 17">
  <path d="M23.305 5.115A5.116 5.116 0 0 0 18.19 0H5.106A5.114 5.114 0 0 0 0 5.115v6.092a5.114 5.114 0 0 0 5.106 5.115H18.19a5.116 5.116 0 0 0 5.116-5.115V5.115ZM15.621 8.61l-5.872 2.91c-.232.121-1.007-.05-1.007-.312v-5.95c0-.263.785-.434 1.017-.303l5.61 3.051c.242.141.483.483.252.604Z"/>
</symbol>
</svg>