<svg xmlns="http://www.w3.org/2000/svg" width="40" height="28" fill="currentColor" viewBox="0 0 40 28">
  <path d="M7.57 0C5.693 0 4.169 1.519 4.169 3.375v9.33c0 .177.072.347.2.473a.687.687 0 0 0 .96 0 .666.666 0 0 0 .198-.473v-9.33a2.02 2.02 0 0 1 2.045-2.032h28.572c1.14 0 2.044.89 2.044 2.032v21.198a2.019 2.019 0 0 1-2.044 2.032h-18.14a.689.689 0 0 0-.628.417.664.664 0 0 0 .149.73.69.69 0 0 0 .48.196h18.138c1.879 0 3.408-1.52 3.408-3.375V3.375C39.55 1.519 38.02 0 36.143 0H7.571ZM33.3 3.85c-1.155 0-2.115.929-2.115 2.066 0 .407.125.788.336 1.108l-4.136 3.862a2.131 2.131 0 0 0-1.987.315l-2.98-1.91c.043-.163.066-.334.066-.51 0-1.137-.96-2.067-2.115-2.067-1.155 0-2.113.93-2.113 2.067 0 .3.066.584.185.841l-3.235 2.94a2.129 2.129 0 0 0-.997-.248c-1.155 0-2.113.93-2.113 2.066 0 1.137.958 2.067 2.113 2.067s2.113-.93 2.113-2.067c0-.298-.065-.58-.183-.837l3.237-2.941a2.131 2.131 0 0 0 2.285-.192l2.979 1.908a2.01 2.01 0 0 0-.068.517c0 1.137.958 2.066 2.114 2.066 1.155 0 2.114-.93 2.114-2.066 0-.408-.123-.789-.334-1.11l4.135-3.865c.22.076.455.118.699.118 1.155 0 2.113-.925 2.113-2.062 0-1.137-.958-2.067-2.113-2.067Zm-.04 1.343h.04c.426 0 .75.32.75.723 0 .403-.324.724-.75.724s-.75-.32-.75-.724c0-.391.303-.703.71-.723ZM20.37 8.057c.426 0 .75.32.75.724 0 .403-.324.723-.75.723-.427 0-.75-.32-.75-.723 0-.404.323-.724.75-.724Zm6.316 4.054c.426 0 .75.32.75.724 0 .403-.324.723-.75.723-.427 0-.75-.32-.75-.723 0-.404.323-.724.75-.724Zm-12.477 1.546c.426 0 .75.32.75.723 0 .404-.324.724-.75.724s-.75-.32-.75-.724c0-.403.324-.723.75-.723Zm-9.302 2.305a.691.691 0 0 0-.485.196.67.67 0 0 0-.2.478v5.099H.685a.686.686 0 0 0-.482.194.666.666 0 0 0-.202.474v4.871a.662.662 0 0 0 .2.477.681.681 0 0 0 .484.197h12.669a.69.69 0 0 0 .482-.198.67.67 0 0 0 .198-.476v-7.755a.666.666 0 0 0-.2-.473.687.687 0 0 0-.48-.196H9.81v-2.214a.662.662 0 0 0-.198-.476.683.683 0 0 0-.482-.198H4.907Zm.68 1.342h2.859v9.301H5.588v-9.301Zm14.55.724a.689.689 0 0 0-.633.416.664.664 0 0 0 .372.877.71.71 0 0 0 .262.05h13.906a.69.69 0 0 0 .48-.197.666.666 0 0 0-.219-1.094.689.689 0 0 0-.26-.052H20.137ZM9.81 20.193h2.858v6.412H9.81v-6.412Zm15.684 1.704a.693.693 0 0 0-.485.197.672.672 0 0 0-.2.477.663.663 0 0 0 .201.475.683.683 0 0 0 .484.195h8.55c.18 0 .353-.072.48-.197a.666.666 0 0 0-.219-1.095.693.693 0 0 0-.26-.052h-8.551Zm-24.129 1.18h2.858v3.528H1.365v-3.528Z"/>
</svg>
