<svg xmlns="http://www.w3.org/2000/svg" width="29" height="32" fill="none" viewBox="0 0 29 32">
  <path stroke="currentColor" stroke-linecap="round" stroke-linejoin="round" stroke-width="2" d="M1 11h26.667M1 11v14.667c0 1.867 0 2.8.363 3.513.32.627.83 1.137 1.457 1.457C3.532 31 4.465 31 6.328 31h16.01c1.864 0 2.795 0 3.508-.363a3.337 3.337 0 0 0 1.458-1.457c.363-.712.363-1.644.363-3.507V11M1 11V9.667c0-1.867 0-2.801.363-3.514.32-.627.83-1.137 1.457-1.456.713-.364 1.647-.364 3.514-.364h1.333m20 6.667V9.662c0-1.864 0-2.797-.363-3.509a3.335 3.335 0 0 0-1.458-1.456c-.713-.364-1.645-.364-3.512-.364H21m-13.333 0H21m-13.333 0V1M21 4.333V1m-1.667 16.667-6.666 6.666L9.333 21"/>
</svg>
