<svg width="26" height="26" viewBox="0 0 26 26" fill="none" xmlns="http://www.w3.org/2000/svg">
<mask id="mask0_3004_10372" style="mask-type:luminance" maskUnits="userSpaceOnUse" x="0" y="0" width="26" height="26">
<path d="M26 0H0V26H26V0Z" fill="white"/>
</mask>
<g mask="url(#mask0_3004_10372)">
<path d="M23.8333 2.43755H20.3125V0.812554C20.3126 0.597065 20.2271 0.390345 20.0749 0.23787C19.9226 0.0853958 19.716 -0.00034443 19.5005 -0.000488089C19.2851 -0.000631747 19.0784 0.0848329 18.9258 0.237104C18.7734 0.389377 18.6876 0.595981 18.6875 0.81147V2.43755H13.8125V0.812554C13.8126 0.705854 13.7916 0.600187 13.7509 0.501582C13.7101 0.402978 13.6503 0.313369 13.5749 0.23787C13.4995 0.162373 13.4099 0.102465 13.3115 0.0615671C13.2129 0.0206694 13.1073 -0.000416968 13.0005 -0.0004881C12.7851 -0.00063176 12.5784 0.0848329 12.4258 0.237104C12.2734 0.389377 12.1876 0.595981 12.1875 0.81147V2.43755H7.3125V0.812554C7.31258 0.705854 7.29162 0.600187 7.25086 0.501582C7.21009 0.402978 7.1503 0.313369 7.0749 0.23787C6.99951 0.162373 6.90998 0.102465 6.81143 0.0615671C6.71289 0.0206694 6.60724 -0.000416968 6.50054 -0.0004881C6.28506 -0.00063176 6.07833 0.0848329 5.92586 0.237104C5.77339 0.389377 5.68764 0.595981 5.6875 0.81147V2.43755H2.16667C1.59222 2.43755 1.04128 2.66568 0.634985 3.07177C0.228687 3.47787 0.000287224 4.02869 0 4.60314V23.8323C0 24.4069 0.228273 24.9581 0.634602 25.3643C1.04093 25.7707 1.59203 25.999 2.16667 25.999H23.8333C24.4079 25.999 24.959 25.7707 25.3654 25.3643C25.7717 24.9581 26 24.4069 26 23.8323V4.60314C25.9997 4.02869 25.7713 3.47787 25.3651 3.07177C24.9587 2.66568 24.4078 2.43755 23.8333 2.43755ZM24.375 23.8334C24.375 23.9768 24.3181 24.1145 24.2167 24.216C24.1154 24.3176 23.9778 24.3747 23.8344 24.375H2.16667C2.02301 24.375 1.88523 24.3179 1.78365 24.2164C1.68207 24.1148 1.625 23.977 1.625 23.8334V4.60422C1.62528 4.46075 1.68248 4.32326 1.78403 4.2219C1.88559 4.12055 2.02319 4.06363 2.16667 4.06363H5.6875V5.68863C5.68736 5.90412 5.77282 6.11084 5.9251 6.26332C6.07737 6.41579 6.28397 6.50154 6.49946 6.50168C6.71494 6.50182 6.92167 6.41635 7.07415 6.26409C7.22661 6.11182 7.31236 5.9052 7.3125 5.68972V4.06363H12.1875V5.68863C12.1874 5.90412 12.2729 6.11084 12.4251 6.26332C12.5774 6.41579 12.784 6.50154 12.9995 6.50168C13.2149 6.50182 13.4216 6.41635 13.5742 6.26409C13.7266 6.11182 13.8124 5.9052 13.8125 5.68972V4.06363H18.6875V5.68863C18.6874 5.90412 18.7729 6.11084 18.9251 6.26332C19.0774 6.41579 19.284 6.50154 19.4995 6.50168C19.7149 6.50182 19.9216 6.41635 20.0742 6.26409C20.2266 6.11182 20.3124 5.9052 20.3125 5.68972V4.06363H23.8333C23.9767 4.06393 24.1139 4.12097 24.2153 4.22229C24.3166 4.3236 24.3736 4.46094 24.3739 4.60422L24.375 23.8334Z" fill="black"/>
<path d="M5.6875 9.75H8.9375V12.1875H5.6875V9.75ZM5.6875 13.8125H8.9375V16.25H5.6875V13.8125ZM5.6875 17.875H8.9375V20.3125H5.6875V17.875ZM11.375 17.875H14.625V20.3125H11.375V17.875ZM11.375 13.8125H14.625V16.25H11.375V13.8125ZM11.375 9.75H14.625V12.1875H11.375V9.75ZM17.0625 17.875H20.3125V20.3125H17.0625V17.875ZM17.0625 13.8125H20.3125V16.25H17.0625V13.8125ZM17.0625 9.75H20.3125V12.1875H17.0625V9.75Z" fill="black"/>
</g>
</svg>
