<svg xmlns="http://www.w3.org/2000/svg" width="39" height="41" fill="currentColor" viewBox="0 0 39 41">
  <path d="M11.674 24.417a7.906 7.906 0 0 1 5.051-.769l8.092 1.407c.806.143 1.48.573 1.917 1.224.37.534.542 1.172.502 1.823a.247.247 0 0 0-.014.09l8.185-1.836c1.057-.234 2.182.196 2.789 1.068v.002c.435.664.568 1.433.383 2.148a2.632 2.632 0 0 1-1.35 1.665l-14.37 7.095a5.842 5.842 0 0 1-2.578.599 5.828 5.828 0 0 1-2.247-.456l-5.805-2.448-1.266.473a3.05 3.05 0 0 1-1.97 2.808l-1.728.664a3.115 3.115 0 0 1-2.37-.048 3.047 3.047 0 0 1-1.64-1.685L.213 30.555c-.621-1.567.17-3.338 1.76-3.948l1.727-.664a3.114 3.114 0 0 1 2.37.048c.414.179.77.445 1.062.769l4.543-2.343Zm-6.851 2.878c-.184 0-.37.033-.548.1l-1.727.666a1.498 1.498 0 0 0-.834.788c-.161.365-.17.767-.024 1.137l3.044 7.687c.148.37.432.66.8.821.37.159.781.167 1.157.026l1.728-.664c.375-.145.671-.424.834-.788H9.25c.16-.365.17-.768.023-1.138L6.23 28.242a1.516 1.516 0 0 0-1.407-.947Zm11.625-2.111a6.362 6.362 0 0 0-4.033.61l-4.523 2.34 2.71 6.843 1.364-.512a.736.736 0 0 1 .29-.05c.105 0 .211.01.303.05l6.096 2.578c1.111.47 2.38.43 3.491-.105l14.359-7.093c.265-.13.463-.377.542-.664h.002a1.08 1.08 0 0 0-.147-.846 1.113 1.113 0 0 0-1.15-.456l-9.44 2.108a2.926 2.926 0 0 1-2.379.755l-7.006-.886c-.437-.052-.754-.442-.689-.872a.79.79 0 0 1 .886-.677l7.02.885a1.38 1.38 0 0 0 1.177-.43c0-.014.013-.026.026-.04a1.38 1.38 0 0 0 .304-.74 1.252 1.252 0 0 0-.224-.834 1.313 1.313 0 0 0-.886-.558l-8.093-1.406Zm-10.226 9.69a1.12 1.12 0 0 1 1.444.625 1.093 1.093 0 0 1-.635 1.42 1.12 1.12 0 0 1-1.443-.624 1.093 1.093 0 0 1 .634-1.421ZM19.008 7.955c.389-.796 1.725-.801 2.12.005l1.66 3.305 3.718.537c.43.054.799.35.945.77.148.426.039.889-.285 1.21l-.009.007-2.686 2.574.633 3.642a1.14 1.14 0 0 1-.458 1.132 1.199 1.199 0 0 1-1.25.1l-3.324-1.73-3.323 1.724c-.415.21-.895.172-1.259-.095a1.145 1.145 0 0 1-.458-1.139l.633-3.634-2.687-2.574a1.154 1.154 0 0 1-.294-1.21c.146-.422.512-.72.956-.777l3.704-.537 1.664-3.31Zm11.21-.647c.45 0 .856.245 1.06.643l1.667 3.31 3.714.539c.428.053.794.348.94.766.15.428.04.893-.284 1.21l-2.696 2.585.63 3.644c.09.41-.078.85-.443 1.122a1.198 1.198 0 0 1-1.26.105l-3.323-1.721-2.233 1.16a.796.796 0 0 1-1.071-.325.776.776 0 0 1 .333-1.055l2.604-1.352a.801.801 0 0 1 .74-.003l2.954 1.534-.563-3.25a.772.772 0 0 1 .229-.69l2.399-2.303-3.31-.48a.797.797 0 0 1-.596-.427l-1.49-2.954-.645 1.285a.8.8 0 0 1-1.063.356.776.776 0 0 1-.36-1.046l1.005-2.005c.205-.401.61-.648 1.06-.648h.002ZM9.921 7.31c.458 0 .876.263 1.064.671l.993 1.982a.776.776 0 0 1-.36 1.046.801.801 0 0 1-1.063-.356L9.918 9.38l-1.484 2.941a.797.797 0 0 1-.595.426l-3.314.48 2.39 2.302c.185.18.271.437.227.69l-.564 3.257 2.969-1.54a.809.809 0 0 1 .738 0l2.592 1.34c.387.2.537.67.334 1.054a.804.804 0 0 1-1.072.327l-2.221-1.15-3.32 1.722c-.18.087-.37.13-.557.13a1.18 1.18 0 0 1-.703-.228 1.15 1.15 0 0 1-.461-1.127l.63-3.647.004.002-2.677-2.578a1.13 1.13 0 0 1-.302-1.192c.143-.43.513-.732.968-.79l3.699-.537 1.666-3.305c.176-.385.597-.647 1.055-.647Zm8.662 5.01a.789.789 0 0 1-.596.429l.002-.002-3.317.48 2.401 2.301c.186.18.273.438.227.693l-.566 3.253 2.969-1.54a.802.802 0 0 1 .74.002l2.96 1.538-.567-3.252a.77.77 0 0 1 .228-.693l2.402-2.3-3.319-.48a.797.797 0 0 1-.595-.429l-1.484-2.954-1.485 2.954ZM14.809 1.39a.799.799 0 0 1 1.082.286l1.541 2.627a.774.774 0 0 1-.29 1.066.8.8 0 0 1-1.085-.286h.002l-1.54-2.627a.773.773 0 0 1 .29-1.066Zm9.439.286a.802.802 0 0 1 1.083-.286.774.774 0 0 1 .29 1.065L24.08 5.083a.801.801 0 0 1-1.084.285h.002a.773.773 0 0 1-.29-1.065l1.54-2.627ZM20.068 0c.439 0 .793.35.793.78v3.035c0 .432-.356.78-.794.78a.786.786 0 0 1-.794-.78V.78c0-.431.356-.78.794-.78Z"/>
</svg>
