<svg xmlns="http://www.w3.org/2000/svg" width="18" height="20" fill="none" viewBox="0 0 18 20">
  <path stroke="currentColor" stroke-linecap="round" stroke-linejoin="round" stroke-width="2" d="M17 7c-.004-.285-.014-.466-.056-.639a1.993 1.993 0 0 0-.24-.578c-.123-.202-.295-.374-.641-.72l-3.125-3.125c-.346-.346-.52-.52-.721-.643a1.999 1.999 0 0 0-.578-.24c-.173-.041-.353-.052-.639-.054L10.675 1H6.2c-1.12 0-1.68 0-2.108.218a1.999 1.999 0 0 0-.874.874C3 2.52 3 3.08 3 4.2V9m14-2v8.804c0 1.118 0 1.676-.218 2.104a2.002 2.002 0 0 1-.874.874C15.48 19 14.92 19 13.803 19H10m7-12h0m0 0h-2.803c-1.118 0-1.678 0-2.105-.218a2 2 0 0 1-.874-.874C11 5.48 11 4.92 11 3.8V1M6 12l2 2m-7 5v-2.5L8.5 9l2.5 2.5L3.5 19H1Z"/>
</svg>
