<svg xmlns="http://www.w3.org/2000/svg" width="20" height="23" fill="currentColor" viewBox="0 0 20 23">
  <path d="M10.563 0a.815.815 0 0 0-.813.813c0 .446.366.812.813.812a.815.815 0 0 0 .812-.813.815.815 0 0 0-.813-.812ZM8.124 2.438a.815.815 0 0 0-.812.812H4.875v1.625h.813v6.22l-5.002 6.45A3.231 3.231 0 0 0 0 19.525a3.233 3.233 0 0 0 3.225 3.225h13.05a3.233 3.233 0 0 0 3.225-3.225c0-.717-.244-1.412-.686-1.98l-5.002-6.45v-6.22h.813V3.25H8.937a.815.815 0 0 0-.812-.813Zm-.812 2.437h4.875v6.78l2.31 2.97H5.002l2.31-2.97v-6.78Zm3.25 3.25a.815.815 0 0 0-.813.813c0 .446.366.812.813.812a.815.815 0 0 0 .812-.813.815.815 0 0 0-.813-.812Zm-6.83 8.125h12.034l1.778 2.286c.22.281.33.633.33.99a1.582 1.582 0 0 1-1.6 1.599H3.225a1.583 1.583 0 0 1-1.6-1.6c0-.355.111-.707.33-.99l1.778-2.285Z"/>
</svg>
