<svg xmlns="http://www.w3.org/2000/svg" width="18" height="19" fill="none" viewBox="0 0 18 19">
  <path stroke="currentColor" stroke-linecap="round" stroke-linejoin="round" stroke-width="2" d="M17 14.342V8.796c0-.535 0-.802-.065-1.05a1.998 1.998 0 0 0-.28-.618c-.145-.213-.345-.389-.748-.74l-4.8-4.2c-.746-.654-1.12-.98-1.54-1.105-.37-.11-.764-.11-1.135 0-.42.124-.792.45-1.538 1.103l-4.801 4.2c-.402.352-.603.528-.747.74a2 2 0 0 0-.281.618C1 7.993 1 8.26 1 8.794v5.548c0 .932 0 1.398.152 1.766a2 2 0 0 0 1.082 1.082c.368.153.834.153 1.766.153s1.398 0 1.766-.152a2 2 0 0 0 1.082-1.083C7 15.74 7 15.274 7 14.342v-1a2 2 0 1 1 4 0v1c0 .932 0 1.398.152 1.766a2 2 0 0 0 1.082 1.082c.368.153.834.153 1.766.153s1.398 0 1.766-.152a2 2 0 0 0 1.082-1.083c.152-.368.152-.834.152-1.766Z"/>
</svg>
