<svg width="40" height="40" viewBox="0 0 40 40" fill="none" xmlns="http://www.w3.org/2000/svg">
<path d="M0 22.3683V17.6297C2.90847e-05 16.9879 0.318192 16.3935 0.852177 16.0375L3.19438 14.476C3.2794 14.4182 3.34643 14.3303 3.38615 14.219C3.60765 13.5852 3.87153 12.9533 4.16859 12.3412C4.2199 12.2354 4.23399 12.126 4.21371 12.0227L3.65995 9.2592C3.53311 8.62869 3.73042 7.98235 4.18295 7.52982L7.5332 4.17959H7.53423C7.9886 3.72715 8.63632 3.53138 9.26319 3.65638L12.0269 4.20929C12.1283 4.2295 12.2391 4.21631 12.3427 4.16526V4.16424C12.955 3.86708 13.5876 3.6065 14.2214 3.38504L14.3004 3.35125C14.3743 3.31247 14.4344 3.25846 14.4778 3.19357L16.0386 0.851892C16.3945 0.318038 16.9912 0.000154667 17.6311 0H22.3699C23.0118 8.67198e-05 23.6066 0.318001 23.9625 0.851892L25.5233 3.19459V3.19562C25.5795 3.2806 25.6678 3.3484 25.7776 3.38606L25.7786 3.38709C26.4116 3.60833 27.0428 3.8707 27.6542 4.16731H27.6552C27.7626 4.21793 27.8707 4.23366 27.9752 4.21338L30.7378 3.66047L30.9747 3.62771C31.5262 3.58665 32.0719 3.78675 32.4678 4.18267L35.8181 7.53392C36.2705 7.98822 36.4659 8.63388 36.3411 9.26227L35.7883 12.0258C35.7681 12.1272 35.7819 12.2371 35.8335 12.3432C36.1305 12.9554 36.3914 13.5874 36.6128 14.2211L36.6477 14.2999C36.6875 14.3744 36.7417 14.4347 36.8066 14.4781L39.1478 16.0385C39.6818 16.3945 40 16.9899 40 17.6317V22.3693C40 23.0111 39.6818 23.6065 39.1478 23.9625L36.8046 25.5219C36.7193 25.5798 36.6526 25.6694 36.6128 25.781C36.3914 26.4145 36.1283 27.046 35.8314 27.6578C35.78 27.7636 35.7661 27.8729 35.7863 27.9762L36.339 30.7398C36.4659 31.3703 36.2686 32.0166 35.816 32.4692L32.4658 35.8194V35.8204C32.0684 36.2161 31.5239 36.4165 30.9727 36.3754L30.7368 36.3426L27.9731 35.7897H27.9721C27.8705 35.7682 27.7619 35.7832 27.6573 35.8347H27.6563C27.0441 36.1318 26.4122 36.3925 25.7786 36.6139L25.7776 36.615C25.6671 36.6528 25.579 36.7197 25.5212 36.8064L23.9604 39.1471C23.6044 39.6811 23.0079 40 22.3678 40H17.6301C16.9881 40 16.3935 39.681 16.0375 39.1471L14.4757 36.8044C14.4336 36.7406 14.374 36.6858 14.3004 36.6467L14.2214 36.6129C13.5875 36.3914 12.9549 36.1277 12.3427 35.8306C12.2371 35.7794 12.1279 35.7654 12.0248 35.7856L9.26114 36.3395V36.3385C8.63191 36.4673 7.98448 36.2685 7.53217 35.8163L4.1809 32.4651C3.72859 32.0107 3.53401 31.3651 3.65892 30.7367L4.21166 27.9732C4.2319 27.872 4.2179 27.7628 4.16654 27.6568V27.6558C3.86946 27.0435 3.60756 26.4116 3.38615 25.7779C3.34637 25.6668 3.27976 25.5786 3.19335 25.5209L0.852177 23.9605C0.318335 23.6046 0.000167883 23.0099 0 22.3683ZM38.5838 22.3693V17.6297C38.5838 17.4627 38.5006 17.3095 38.3613 17.216L36.0191 15.6545C35.6721 15.4232 35.4144 15.0894 35.2746 14.6869C35.0719 14.1055 34.8315 13.5242 34.5578 12.9606C34.3708 12.5771 34.3152 12.1578 34.3968 11.7483L34.9505 8.98479C34.9829 8.82215 34.9323 8.65345 34.8141 8.5353L31.4629 5.18507C31.3449 5.0672 31.1807 5.01646 31.0127 5.04889L28.249 5.6018C27.8371 5.68532 27.418 5.62806 27.0348 5.4431C26.4709 5.17093 25.8909 4.92898 25.3079 4.72636C24.9057 4.58653 24.5701 4.32895 24.3388 3.98198L22.778 1.63928V1.63825C22.6866 1.49982 22.531 1.41709 22.3637 1.41709H17.626C17.5008 1.41713 17.3832 1.46395 17.2927 1.5461L17.2127 1.63928L15.652 3.98198H15.6509C15.418 4.32857 15.0845 4.58648 14.6818 4.72636C14.1005 4.92904 13.5205 5.16831 12.957 5.44207C12.5734 5.62912 12.1527 5.68543 11.7449 5.60385L8.98118 5.05094C8.81872 5.01859 8.65016 5.06898 8.53202 5.18712L5.18177 8.53735C5.06519 8.65392 5.01294 8.82254 5.04538 8.98684L5.59914 11.7504C5.68066 12.1599 5.62525 12.5793 5.44019 12.9627C5.16635 13.5264 4.924 14.1077 4.72132 14.689C4.59905 15.0394 4.38638 15.3398 4.10398 15.5644L3.97887 15.6566L1.63565 17.2191C1.49718 17.3104 1.41414 17.4662 1.41414 17.6337V22.3714C1.41416 22.5384 1.49723 22.6916 1.63667 22.785L3.97887 24.3465C4.32561 24.5777 4.58352 24.9108 4.72338 25.3131L4.88233 25.7492C5.04823 26.1846 5.2348 26.6176 5.44019 27.0404C5.62707 27.4238 5.68159 27.8424 5.60016 28.2517L5.04743 31.0162C5.01505 31.1789 5.06567 31.3476 5.18382 31.4657L8.53407 34.816C8.65212 34.934 8.81886 34.9847 8.98528 34.9521L11.749 34.3992C11.8725 34.3745 11.9975 34.3634 12.1202 34.3634C12.4086 34.3634 12.695 34.4297 12.9631 34.56C13.5269 34.832 14.1063 35.0742 14.689 35.2767C15.0914 35.4165 15.4278 35.674 15.6591 36.0211L17.2199 38.3638L17.2999 38.457C17.3898 38.5386 17.5078 38.5849 17.6332 38.585H22.3709C22.5376 38.585 22.6917 38.5031 22.7852 38.3638L24.346 36.0211V36.0201C24.5789 35.6736 24.9127 35.4166 25.3151 35.2767C25.8965 35.074 26.4763 34.8338 27.0399 34.56C27.4235 34.3729 27.8442 34.3177 28.2521 34.3992L31.0157 34.9521H31.0168C31.1781 34.9859 31.3462 34.9347 31.4649 34.816L34.8162 31.4657C34.9327 31.3492 34.9839 31.1805 34.9515 31.0162L34.3988 28.2517C34.3174 27.8423 34.3728 27.4236 34.5578 27.0404L34.7567 26.6144C34.9498 26.1857 35.1236 25.7492 35.2756 25.3131H35.2766C35.4164 24.913 35.6733 24.5777 36.018 24.3465H36.0191L38.3613 22.784L38.3623 22.783C38.5006 22.6916 38.5838 22.5367 38.5838 22.3693Z" fill="white" fill-opacity="0.2"/>
<path d="M10.335 17.3382C10.0217 17.0486 10.1919 16.5249 10.6156 16.4746L16.6191 15.7625C16.7918 15.7421 16.9418 15.6336 17.0146 15.4757L19.5469 9.98593C19.7256 9.59849 20.2764 9.59842 20.4551 9.98585L22.9873 15.4756C23.0601 15.6335 23.2092 15.7422 23.3818 15.7627L29.3857 16.4746C29.8094 16.5249 29.9791 17.0487 29.6659 17.3384L25.2278 21.4434C25.1001 21.5614 25.0433 21.7372 25.0771 21.9077L26.255 27.8374C26.3382 28.2559 25.8928 28.5801 25.5205 28.3717L20.2451 25.4181C20.0934 25.3331 19.9091 25.3335 19.7573 25.4185L14.4814 28.371C14.1091 28.5794 13.6629 28.2559 13.7461 27.8374L14.9241 21.9081C14.958 21.7375 14.9013 21.5614 14.7737 21.4433L10.335 17.3382Z" stroke="white" stroke-width="2" stroke-linecap="round" stroke-linejoin="round"/>
</svg>
