<svg width="16" height="16" viewBox="0 0 16 16" fill="none" xmlns="http://www.w3.org/2000/svg">
<path d="M3.04979 0.00866873L3.05793 0.00810461C3.27017 -0.00551767 3.55539 0.00213279 3.77172 0.00221228L5.02447 0.00256871L8.92527 0.00248668L11.6371 0.0021935L12.4163 0.00209862C12.7525 0.00215332 13.0332 -0.0031997 13.3675 0.0569142C13.9342 0.16141 14.4622 0.416394 14.8963 0.795131C15.5458 1.35976 15.9402 2.16232 15.9903 3.02133C16.0054 3.26732 15.9984 3.56208 15.9984 3.81145L15.9982 5.08763V9.06567L15.9984 11.6861L15.9985 12.4394C15.9985 12.7676 16.0036 13.037 15.9441 13.3629C15.8393 13.9385 15.5784 14.4744 15.1901 14.9121C14.6217 15.5554 13.8186 15.9435 12.9613 15.9891C12.2006 16.0102 11.3772 15.9942 10.6117 15.9941H6.28733L4.12054 15.9942C3.67515 15.9942 3.06375 16.0194 2.64203 15.943C2.0754 15.8402 1.54677 15.5873 1.11135 15.2106C0.472153 14.6569 0.0774165 13.8734 0.0129623 13.0303C-0.0059315 12.7774 0.00136102 12.4796 0.00149011 12.2222L0.00159186 11.0035L0.0016235 7.14123L0.00153968 4.36885L0.00140121 3.57912C0.00117722 3.24646 -0.00557327 2.97716 0.0533146 2.64609C0.155139 2.08217 0.405819 1.55569 0.779412 1.1211C1.37695 0.431181 2.14608 0.0744801 3.04979 0.00866873Z" fill="#686666"/>
<path d="M9.88053 6.32634C10.0912 6.33043 10.3419 6.31464 10.5485 6.33317C11.0205 6.37603 11.4626 6.58293 11.7985 6.91716C12.0801 7.19615 12.2753 7.55045 12.36 7.93767C12.413 8.18039 12.4011 8.44555 12.401 8.6945V9.44743L12.403 12.3947C11.8233 12.3848 11.2171 12.3939 10.6354 12.3947L10.6335 10.0812L10.6344 9.47868C10.6346 9.31589 10.6368 9.08096 10.6081 8.92302C10.5696 8.70686 10.4773 8.50326 10.3385 8.33317C9.9008 7.80583 9.11322 7.83991 8.61295 8.26091C8.59743 8.27438 8.58253 8.2884 8.56803 8.3029C8.18503 8.68315 8.18959 9.01604 8.1901 9.51481L8.19108 10.1408L8.1901 12.3957C7.61391 12.385 7.00018 12.393 6.42252 12.3947C6.41468 11.7429 6.42155 11.0741 6.42155 10.4211L6.42057 6.39372C6.99857 6.38327 7.61046 6.39042 8.1901 6.39274V7.22478C8.23131 7.16883 8.274 7.1135 8.31803 7.05974C8.67571 6.62914 9.16722 6.38486 9.72135 6.33317C9.75494 6.32937 9.845 6.32565 9.88053 6.32634ZM5.36881 6.39274V12.3927C4.77619 12.4005 4.16899 12.393 3.57487 12.3947V6.39372C4.16165 6.38337 4.78047 6.39212 5.36881 6.39274ZM4.39127 3.35759C4.98373 3.31475 5.49881 3.75956 5.54362 4.35173C5.58835 4.94406 5.14572 5.46151 4.55338 5.50798C3.95857 5.55462 3.43912 5.10863 3.3942 4.51384C3.34945 3.91914 3.79627 3.40073 4.39127 3.35759Z" fill="white"/>
</svg>
