<svg width="48" height="48" viewBox="0 0 48 48" fill="none" xmlns="http://www.w3.org/2000/svg">
<path d="M38.2411 38.6647C38.1748 38.6647 38.1748 38.6647 38.2411 38.6647C39.2464 36.6123 39.7158 34.3614 39.7158 31.8455C39.7158 26.8137 37.4369 24.0993 36.7001 21.6496C36.1643 19.862 36.6327 17.3462 39.9169 18.0083C37.9738 14.7641 32.5444 14.5655 30.4676 19.4648C28.5908 23.9007 31.6739 27.6744 31.6739 31.9117C31.6739 34.6261 30.8023 36.8772 29.0602 38.6647C27.3171 40.4524 25.1056 41.3793 22.5593 41.3793C19.9456 41.3793 17.8014 40.4524 15.992 38.6647C14.2489 36.8772 13.311 34.6261 13.311 31.9117C13.311 25.2248 20.214 20.1931 23.7656 18.0745C29.0602 14.8966 32.3433 12.5793 34.1538 10.1296C36.9685 6.35586 35.6275 1.72138 34.8233 0C27.5182 12.0497 12.5731 11.9835 6.87741 23.8345C0.84592 36.2813 10.2279 48 22.4919 48C26.4466 48 29.7971 47.0069 32.6791 45.0207C34.2201 47.4041 39.9169 48.8606 43 44.0937C40.2516 44.7558 36.298 43.2993 38.2411 38.6647Z" fill="white"/>
</svg>
