<svg xmlns="http://www.w3.org/2000/svg" width="20" height="16" fill="none" viewBox="0 0 20 16">
  <path stroke="currentColor" stroke-linecap="round" stroke-linejoin="round" stroke-width="2" d="m2 2 6.108 4.612.002.002c.678.497 1.017.746 1.389.842a2 2 0 0 0 1.002 0c.372-.096.712-.346 1.392-.844 0 0 3.917-3.006 6.107-4.612M1 11.8V4.2c0-1.12 0-1.68.218-2.108.192-.377.497-.682.874-.874C2.52 1 3.08 1 4.2 1h11.6c1.12 0 1.68 0 2.107.218.377.192.683.497.875.874.218.427.218.987.218 2.105v7.607c0 1.117 0 1.676-.218 2.104a2.002 2.002 0 0 1-.875.874c-.427.218-.986.218-2.104.218H4.197c-1.118 0-1.678 0-2.105-.218a2 2 0 0 1-.874-.874C1 13.48 1 12.92 1 11.8Z"/>
</svg>
