<svg xmlns="http://www.w3.org/2000/svg" width="16" height="16" fill="none" viewBox="0 0 16 16">
  <path stroke="currentColor" stroke-linecap="round" stroke-linejoin="round" stroke-width="2" d="M14 7a1 1 0 1 0 0 2 1 1 0 0 0 0-2ZM8 7a1 1 0 1 0 0 2 1 1 0 0 0 0-2ZM2 7a1 1 0 1 0 0 2 1 1 0 0 0 0-2Zm12-6a1 1 0 1 0 0 2 1 1 0 0 0 0-2ZM8 1a1 1 0 1 0 0 2 1 1 0 0 0 0-2ZM2 1a1 1 0 1 0 0 2 1 1 0 0 0 0-2Zm12 12a1 1 0 1 0 0 2 1 1 0 0 0 0-2Zm-6 0a1 1 0 1 0 0 2 1 1 0 0 0 0-2Zm-6 0a1 1 0 1 0 0 2 1 1 0 0 0 0-2Z"/>
</svg>
