<svg xmlns="http://www.w3.org/2000/svg" width="22" height="21" fill="none" viewBox="0 0 22 21">
  <path stroke="currentColor" stroke-linecap="round" stroke-linejoin="round" stroke-width="2" d="M1.162 8.643a.5.5 0 0 1 .28-.864l6.004-.712a.5.5 0 0 0 .396-.287l2.532-5.49a.5.5 0 0 1 .908 0l2.533 5.49a.499.499 0 0 0 .394.287l6.004.712a.5.5 0 0 1 .28.864l-4.438 4.105a.5.5 0 0 0-.15.464l1.177 5.93a.5.5 0 0 1-.734.534l-5.276-2.953a.498.498 0 0 0-.487 0l-5.276 2.953a.5.5 0 0 1-.736-.534l1.178-5.93a.5.5 0 0 0-.15-.464L1.162 8.643Z"/>
</svg>
