<svg xmlns="http://www.w3.org/2000/svg" width="36" height="34" fill="none" viewBox="0 0 36 34">
  <path stroke="currentColor" stroke-linecap="round" stroke-linejoin="round" stroke-width="2" d="m31.577 11.584-.61-.34a3.333 3.333 0 0 1-1.306-1.207c-.029-.044-.055-.092-.11-.186a3.334 3.334 0 0 1-.5-1.928l.012-.709c.019-1.134.028-1.703-.131-2.213a3.332 3.332 0 0 0-.695-1.226c-.357-.4-.852-.687-1.843-1.257l-.823-.475c-.988-.57-1.482-.854-2.007-.963a3.332 3.332 0 0 0-1.405.013c-.522.117-1.01.41-1.986.993l-.005.003-.59.353a3.329 3.329 0 0 1-1.7.527c-.053.002-.107.002-.216.002-.108 0-.164 0-.218-.002a3.33 3.33 0 0 1-1.515-.419c-.046-.026-.093-.055-.186-.11l-.594-.357c-.982-.59-1.474-.885-1.998-1.003a3.33 3.33 0 0 0-1.411-.01c-.526.11-1.02.397-2.009.971l-.004.002-.813.472-.009.005c-.98.57-1.47.854-1.825 1.253a3.31 3.31 0 0 0-.69 1.224c-.16.51-.151 1.08-.132 2.22l.012.708c.001.107.005.16.004.213a3.337 3.337 0 0 1-.398 1.526c-.025.047-.051.093-.105.186s-.08.14-.107.184a3.332 3.332 0 0 1-1.125 1.105c-.045.027-.093.053-.187.105l-.602.334c-1.003.556-1.504.834-1.869 1.23a3.33 3.33 0 0 0-.715 1.217c-.168.511-.168 1.084-.165 2.23l.002.937c.002 1.139.006 1.708.174 2.216.15.449.391.861.712 1.21.363.393.86.67 1.854 1.223l.597.332a3.336 3.336 0 0 1 1.434 1.416c.057.1.086.15.113.2a3.333 3.333 0 0 1 .382 1.728l-.011.68c-.02 1.143-.028 1.715.132 2.228.142.453.378.871.695 1.226.357.4.853.686 1.844 1.257l.822.474c.989.57 1.482.854 2.007.962.464.097.943.093 1.406-.011.522-.117 1.012-.41 1.99-.996l.59-.353a3.327 3.327 0 0 1 1.699-.528c.053-.002.107-.002.216-.002a3.336 3.336 0 0 1 1.887.512l.627.376c.982.59 1.473.884 1.998 1.002.464.104.945.109 1.41.011.527-.11 1.022-.397 2.01-.97l.825-.48c.98-.568 1.472-.854 1.827-1.253.314-.354.55-.77.69-1.223.158-.507.149-1.073.13-2.196l-.012-.733a6.37 6.37 0 0 1-.002-.213 3.334 3.334 0 0 1 .396-1.526c.024-.047.052-.094.105-.186a3.25 3.25 0 0 1 .11-.184 3.334 3.334 0 0 1 1.306-1.208l.004-.002.602-.334c1.003-.556 1.505-.834 1.87-1.23a3.33 3.33 0 0 0 .715-1.216c.167-.509.165-1.078.163-2.211l-.002-.957c-.003-1.139-.004-1.708-.173-2.216a3.337 3.337 0 0 0-.713-1.21c-.362-.392-.86-.669-1.852-1.221l-.003-.002Z"/>
  <path stroke="currentColor" stroke-linecap="round" stroke-linejoin="round" stroke-width="2" d="M10.994 16.713a6.667 6.667 0 1 0 13.333 0 6.667 6.667 0 0 0-13.333 0Z"/>
</svg>
