<svg xmlns="http://www.w3.org/2000/svg" width="33" height="45" fill="currentColor" viewBox="0 0 33 45">
  <path d="M16.383 0a.783.783 0 0 0-.548.226.759.759 0 0 0-.226.542V3.1c-1.314.107-2.363 1.19-2.363 2.51v2.888a4.02 4.02 0 0 0-2.96 1.908C4.28 12.015 0 17.474 0 23.92c0 6.588 4.642 12.119 10.883 13.6v.809h-1.27c-2.966 0-5.38 2.36-5.409 5.275a.755.755 0 0 0 .224.545.778.778 0 0 0 .55.228h26.86a.786.786 0 0 0 .554-.226.764.764 0 0 0 .226-.547c-.031-2.914-2.443-5.275-5.41-5.275h-1.273v-7.585h.98a.78.78 0 0 0 .55-.225.76.76 0 0 0 0-1.083.784.784 0 0 0-.55-.224H9.907a.784.784 0 0 0-.55.224.76.76 0 0 0 0 1.083.784.784 0 0 0 .55.225h.976v1.697c-3.488-1.3-5.932-4.582-5.932-8.52 0-3.997 2.517-7.32 6.087-8.583a4.017 4.017 0 0 0 2.208 1.006v2.555c0 1.307 1.03 2.383 2.327 2.506-.02.13-.032.26-.032.392 0 1.465 1.224 2.671 2.712 2.672 1.49 0 2.714-1.206 2.714-2.672 0-.124-.014-.246-.032-.368h.072c1.41 0 2.57-1.141 2.57-2.53V5.608c0-1.313-1.04-2.392-2.346-2.507V.768a.76.76 0 0 0-.225-.542.783.783 0 0 0-.549-.226h-4.074Zm.78 1.53h2.514v1.548h-2.514V1.53Zm-1.347 3.08h5.19c.577 0 1.016.432 1.016 1v13.289c0 .568-.44 1-1.015 1h-5.191c-.577 0-1.016-.432-1.016-1v-2.675c1.689-.467 2.937-1.996 2.937-3.803S16.49 9.084 14.8 8.617V5.608c0-.567.44-1 1.016-1ZM13.72 9.997c.124 0 .243.018.361.035a2.274 2.274 0 0 1 .457.11c.078.026.155.055.23.088.064.03.125.064.186.1.072.04.144.082.211.13.056.04.107.085.16.13.062.053.126.105.183.164.047.049.088.102.13.155.053.064.107.128.152.197.044.067.077.14.114.211.032.061.068.118.094.182.038.09.062.188.088.284.015.054.036.106.047.162.03.153.049.312.049.475 0 .162-.018.321-.049.475-.012.061-.034.118-.051.178-.025.088-.048.176-.082.26-.036.087-.083.168-.128.25-.026.046-.047.095-.076.14-.058.09-.125.171-.194.252-.027.033-.051.067-.08.098a2.42 2.42 0 0 1-.243.217c-.031.027-.06.053-.093.077a2.32 2.32 0 0 1-.287.176c-.033.018-.066.038-.1.054a2.46 2.46 0 0 1-.439.159c-.108.028-.22.049-.335.062-.1.012-.2.03-.305.03-1.37 0-2.46-1.08-2.46-2.428 0-1.349 1.09-2.423 2.46-2.423Zm-4.004 2.19c-.005.077-.01.154-.01.233 0 .586.138 1.138.373 1.64-3.941 1.587-6.685 5.389-6.685 9.86 0 4.766 3.123 8.766 7.488 10.137v1.889c-5.371-1.444-9.329-6.275-9.329-12.027 0-5.42 3.352-10.004 8.163-11.732Zm7.504 9.241h2.066c.046.123.125.235.126.368 0 .639-.51 1.14-1.16 1.14a1.137 1.137 0 0 1-1.158-1.134v-.006c0-.132.08-.246.126-.368Zm-4.784 9.315H24.38v7.585H12.437v-7.585Zm-2.823 9.115h1.915a.787.787 0 0 0 .134.012H25.16a.793.793 0 0 0 .126-.012h1.921c1.828 0 3.118 1.323 3.53 2.988H6.085c.412-1.664 1.7-2.988 3.528-2.988Z"/>
</svg>
