<svg width="157" height="156" viewBox="0 0 157 156" fill="none" xmlns="http://www.w3.org/2000/svg">
<g opacity="0.2" clip-path="url(#clip0_425_665)">
<path d="M51.017 13.6824C99.8028 -14.4841 162.185 2.23119 190.352 51.017C218.518 99.8028 201.803 162.185 153.017 190.352C104.231 218.518 41.8489 201.803 13.6824 153.017C-14.4841 104.231 2.23117 41.8489 51.017 13.6824ZM54.017 18.8786C8.10092 45.3882 -7.63109 104.101 18.8785 150.017C45.3882 195.933 104.101 211.665 150.017 185.156C195.933 158.646 211.665 99.9331 185.156 54.017C158.646 8.10094 99.9331 -7.63107 54.017 18.8786ZM55.517 21.4766C99.9982 -4.20457 156.876 11.0358 182.557 55.517C208.239 99.9982 192.998 156.876 148.517 182.558C104.036 208.239 47.1579 192.998 21.4766 148.517C-4.20459 104.036 11.0358 47.1579 55.517 21.4766ZM56.017 22.3427C12.0141 47.7478 -3.06242 104.014 22.3426 148.017C47.7477 192.02 104.014 207.097 148.017 181.692C192.02 156.286 207.097 100.02 181.691 56.017C156.286 12.0141 100.02 -3.0624 56.017 22.3427ZM142.591 168.32L143.094 169.214L139.05 171.491L140.49 174.046L144.211 171.949L144.708 172.831L140.986 174.928L142.56 177.721L146.604 175.443L147.106 176.337L141.991 179.218L137.475 171.202L142.591 168.32ZM146.79 165.486C147.227 165.18 147.672 164.973 148.123 164.863C148.578 164.751 149.015 164.769 149.434 164.915C149.853 165.062 150.228 165.371 150.556 165.841C150.89 166.32 151.039 166.821 151.005 167.345C150.974 167.866 150.744 168.367 150.311 168.847C150.624 168.69 150.921 168.618 151.203 168.632C151.485 168.646 151.772 168.733 152.061 168.893C152.351 169.046 152.664 169.269 153.002 169.561L154.814 171.106L153.782 171.826L152.142 170.395C151.851 170.137 151.577 169.936 151.321 169.792C151.066 169.642 150.814 169.571 150.564 169.579C150.311 169.583 150.04 169.686 149.753 169.887L147.982 171.122L150.211 174.318L149.203 175.023L143.936 167.477L146.79 165.486ZM130.582 174.77C131.022 174.144 131.68 173.643 132.554 173.267C133.132 173.018 133.72 172.885 134.317 172.866C134.918 172.846 135.478 172.969 135.995 173.238C136.515 173.501 136.939 173.934 137.268 174.536L136.131 175.024C135.899 174.623 135.607 174.338 135.256 174.167C134.907 173.989 134.532 173.907 134.131 173.921C133.734 173.933 133.341 174.022 132.952 174.19C132.274 174.482 131.79 174.873 131.5 175.365C131.215 175.855 131.086 176.399 131.115 176.997C131.144 177.595 131.295 178.209 131.567 178.841C131.837 179.469 132.179 179.999 132.593 180.431C133.007 180.863 133.49 181.142 134.04 181.268C134.592 181.387 135.208 181.301 135.886 181.01C136.572 180.714 137.057 180.305 137.338 179.782C137.619 179.26 137.647 178.647 137.424 177.944L138.567 177.452C138.786 178.146 138.83 178.783 138.697 179.361C138.562 179.935 138.285 180.441 137.868 180.879C137.451 181.316 136.925 181.672 136.288 181.945C135.414 182.322 134.597 182.454 133.84 182.343C133.083 182.232 132.41 181.919 131.821 181.403C131.237 180.886 130.76 180.201 130.393 179.347C130.025 178.493 129.854 177.673 129.879 176.889C129.908 176.102 130.142 175.396 130.582 174.77ZM155.159 160.207L153.165 161.893L158.438 168.132L157.503 168.922L152.23 162.683L150.231 164.372L149.564 163.584L154.493 159.419L155.159 160.207ZM120.949 177.418L123.085 185.274L127.234 184.146L127.512 185.169L122.176 186.62L119.762 177.741L120.949 177.418ZM162.702 164.317L161.817 165.171L155.427 158.55L156.313 157.696L162.702 164.317ZM162.552 152.462L159.54 155.802L161.722 157.771L164.451 154.745L165.197 155.419L162.468 158.444L165.61 161.278L164.786 162.192L157.954 156.029L161.791 151.775L162.552 152.462ZM110.663 179.215L114.409 183.703L116.582 178.306L117.879 178.108L119.274 187.203L118.079 187.386L116.947 180.013L114.971 184.937L114.174 185.06L110.762 180.95L111.896 188.335L110.727 188.514L109.332 179.419L110.663 179.215ZM147.275 166.397L145.532 167.614L147.395 170.282L149.11 169.085C149.387 168.892 149.601 168.664 149.752 168.403C149.903 168.142 149.975 167.867 149.967 167.577C149.964 167.286 149.864 167 149.668 166.719C149.374 166.297 149.019 166.056 148.604 165.995C148.193 165.932 147.75 166.066 147.275 166.397ZM170.768 155.303L170.011 156.272L162.759 150.61L163.516 149.64L170.768 155.303ZM169.007 143.473L166.424 147.329L168.859 148.962L171.238 145.412L172.079 145.975L169.7 149.525L172.363 151.309L174.948 147.454L175.799 148.024L172.531 152.902L164.887 147.78L168.155 142.902L169.007 143.473ZM101.78 180.181C102.421 179.762 103.218 179.541 104.17 179.515C104.798 179.498 105.393 179.591 105.955 179.795C106.521 179.998 106.995 180.321 107.376 180.762C107.761 181.198 107.996 181.757 108.078 182.439L106.841 182.472C106.774 182.014 106.609 181.64 106.346 181.351C106.087 181.057 105.769 180.842 105.392 180.706C105.019 180.57 104.621 180.508 104.197 180.52C103.459 180.54 102.864 180.724 102.413 181.074C101.967 181.423 101.646 181.881 101.452 182.446C101.257 183.012 101.17 183.64 101.188 184.327C101.207 185.011 101.328 185.63 101.552 186.185C101.777 186.74 102.122 187.177 102.586 187.497C103.055 187.813 103.659 187.96 104.397 187.94C105.144 187.92 105.745 187.72 106.2 187.338C106.655 186.957 106.908 186.398 106.961 185.663L108.206 185.629C108.152 186.355 107.957 186.962 107.619 187.45C107.281 187.933 106.837 188.301 106.288 188.553C105.738 188.805 105.117 188.94 104.425 188.958C103.472 188.984 102.665 188.806 102.003 188.423C101.341 188.039 100.832 187.499 100.476 186.802C100.124 186.105 99.9354 185.292 99.9103 184.362C99.8852 183.433 100.029 182.608 100.342 181.888C100.66 181.169 101.14 180.599 101.78 180.181ZM172.01 136.948C172.645 136.515 173.35 136.303 174.125 136.31C174.899 136.316 175.714 136.544 176.568 136.995C177.427 137.448 178.077 137.995 178.517 138.635C178.96 139.27 179.181 139.972 179.183 140.74C179.184 141.509 178.962 142.317 178.516 143.163L177.07 145.902L168.933 141.608L170.378 138.869C170.827 138.018 171.371 137.378 172.01 136.948ZM172.43 138.027C171.956 138.369 171.533 138.891 171.163 139.592L170.419 141.001L176.731 144.332L177.475 142.923C177.851 142.21 178.049 141.562 178.068 140.979C178.083 140.395 177.916 139.866 177.568 139.394C177.217 138.915 176.685 138.487 175.972 138.111C175.263 137.736 174.614 137.544 174.027 137.533C173.439 137.516 172.906 137.681 172.43 138.027ZM98.0124 179.69L97.5221 188.878L96.2936 188.813L96.7838 179.625L98.0124 179.69ZM66.017 39.6632C100.454 19.7809 144.489 31.5799 164.371 66.017C184.253 100.454 172.454 144.489 138.017 164.371C103.58 184.253 59.5454 172.454 39.6632 138.017C19.7809 103.58 31.5799 59.5454 66.017 39.6632ZM129.081 165.796C129.109 166.081 129.09 166.35 129.036 166.599C131.116 165.726 133.17 164.745 135.194 163.655C134.969 163.539 134.751 163.386 134.55 163.187L130.593 159.284C129.911 159.625 129.226 159.953 128.537 160.267L129.081 165.796ZM139.202 154.11C138.585 154.549 137.958 154.979 137.322 155.399L138.725 160.777C138.796 161.051 138.819 161.316 138.807 161.569C140.763 160.361 142.641 159.073 144.437 157.709C144.194 157.63 143.951 157.512 143.718 157.345L139.202 154.11ZM118.77 169.244C118.753 169.535 118.69 169.801 118.596 170.043C120.798 169.505 122.987 168.856 125.154 168.094C124.946 167.944 124.751 167.756 124.58 167.524L121.29 163.06C120.561 163.291 119.83 163.508 119.097 163.712L118.77 169.244ZM146.904 147.657C146.361 148.19 145.808 148.715 145.243 149.231L147.465 154.311C147.58 154.576 147.645 154.839 147.671 155.094C149.415 153.598 151.072 152.027 152.639 150.388C152.382 150.349 152.12 150.271 151.86 150.14L146.904 147.657ZM108.048 171.037C107.985 171.321 107.882 171.573 107.751 171.797C110.017 171.612 112.282 171.316 114.538 170.906C114.354 170.724 114.189 170.505 114.055 170.247L111.505 165.326C110.75 165.439 109.993 165.539 109.236 165.625L108.048 171.037ZM153.492 140.073C153.04 140.687 152.575 141.292 152.099 141.891L155.086 146.558C155.243 146.803 155.349 147.055 155.414 147.306C156.897 145.558 158.287 143.745 159.58 141.875C159.321 141.876 159.051 141.838 158.774 141.75L153.492 140.073ZM97.1761 171.131C97.0717 171.397 96.9333 171.628 96.7725 171.826C99.0403 171.998 101.32 172.061 103.605 172.011C103.452 171.803 103.325 171.563 103.234 171.289L101.484 166.025C100.722 166.018 99.9603 165.997 99.2001 165.962L97.1761 171.131ZM158.803 131.551C158.452 132.226 158.09 132.896 157.715 133.56L161.4 137.707C161.592 137.923 161.735 138.154 161.839 138.389C163.024 136.436 164.11 134.43 165.095 132.38C164.843 132.42 164.574 132.425 164.291 132.382L158.803 131.551ZM72.0175 50.0563C54.5301 60.1528 44.0482 77.7228 42.2764 96.4027C42.2537 96.6423 42.2322 96.882 42.2124 97.1219C41.5178 105.516 42.5813 114.118 45.5573 122.351C45.6423 122.586 45.7285 122.822 45.8166 123.056C46.1692 123.995 46.5473 124.928 46.9503 125.856C47.1517 126.319 47.3597 126.782 47.5738 127.242C48.1982 128.586 48.877 129.916 49.6101 131.23C49.7567 131.493 49.9045 131.756 50.0555 132.017C50.4574 132.713 50.8718 133.398 51.2971 134.072C51.8952 135.02 52.516 135.945 53.1582 136.848C53.9874 138.014 54.8523 139.143 55.7507 140.233C56.1285 140.692 56.5123 141.143 56.9018 141.588C57.1084 141.824 57.3164 142.059 57.5263 142.291C58.1446 142.976 58.7771 143.643 59.4224 144.294C61.2118 146.099 63.1014 147.776 65.0779 149.318C65.323 149.509 65.5695 149.699 65.8172 149.886C66.0977 150.098 66.3797 150.307 66.6634 150.514C66.7915 150.607 66.9198 150.7 67.0485 150.792C67.6361 151.213 68.2304 151.622 68.8312 152.02C69.3716 152.378 69.9175 152.727 70.4682 153.066C71.4207 153.654 72.3882 154.213 73.3691 154.745C73.8363 154.999 74.3067 155.245 74.7799 155.486C78.2517 157.25 81.8813 158.67 85.6121 159.73C86.1063 159.87 86.6021 160.005 87.0998 160.133C90.9617 161.124 94.9225 161.733 98.9208 161.944C99.3278 161.965 99.7351 161.983 100.143 161.996C107.288 162.226 114.533 161.181 121.527 158.768C121.603 158.742 121.678 158.715 121.754 158.689C125.253 157.466 128.689 155.9 132.017 153.979C160.715 137.41 170.547 100.715 153.979 72.017C153.828 71.7555 153.675 71.4957 153.521 71.2373C153.11 70.5503 152.688 69.8748 152.254 69.2101C151.274 67.7065 150.237 66.2603 149.146 64.8728C148.822 64.4613 148.494 64.055 148.161 63.6539C147.91 63.3515 147.658 63.0513 147.402 62.7549C144.051 58.8726 140.265 55.4994 136.163 52.6652C135.921 52.4983 135.679 52.3331 135.435 52.1699C135.201 52.0131 134.966 51.8575 134.73 51.7043C134.292 51.4205 133.852 51.1423 133.408 50.8705C132.029 50.0259 130.619 49.2399 129.182 48.5121C129.114 48.4777 129.047 48.443 128.978 48.4089L128.331 48.0889C128.183 48.0168 128.034 47.946 127.885 47.8751C127.687 47.7806 127.489 47.6868 127.289 47.5945C110.828 39.9682 91.1649 39.9012 74.048 48.9347C73.367 49.2941 72.6901 49.668 72.0175 50.0563ZM86.4247 169.522C86.2813 169.767 86.1099 169.971 85.9224 170.141C88.1354 170.664 90.3743 171.08 92.6308 171.387C92.5159 171.161 92.4291 170.908 92.3826 170.627L91.4761 165.145C90.7264 165.019 89.9793 164.88 89.235 164.728L86.4247 169.522ZM162.717 122.304C162.476 123.025 162.223 123.741 161.957 124.453L166.252 127.978C166.472 128.159 166.648 128.361 166.786 128.573C167.648 126.466 168.407 124.319 169.06 122.141C168.82 122.218 168.558 122.265 168.274 122.266L162.717 122.304ZM76.057 166.252C75.8759 166.473 75.6732 166.648 75.46 166.787C77.5676 167.649 79.7146 168.408 81.8928 169.062C81.8153 168.821 81.7702 168.559 81.7682 168.275L81.7299 162.717C81.0095 162.476 80.293 162.224 79.5812 161.958L76.057 166.252ZM165.144 112.558C165.019 113.308 164.88 114.055 164.728 114.799L169.522 117.611C169.766 117.754 169.971 117.924 170.14 118.112C170.664 115.899 171.08 113.66 171.387 111.403C171.16 111.519 170.908 111.606 170.626 111.653L165.144 112.558ZM122.849 139.642L118.196 142.329L108.995 126.392L113.648 123.705L122.849 139.642ZM129.693 135.69L125.04 138.377L115.839 122.44L120.492 119.753L129.693 135.69ZM166.024 102.551C166.017 103.313 165.996 104.074 165.961 104.835L171.13 106.859C171.396 106.963 171.627 107.101 171.825 107.262C171.998 104.994 172.061 102.714 172.011 100.43C171.803 100.582 171.563 100.71 171.289 100.802L166.024 102.551ZM66.3277 161.401C66.1111 161.593 65.8804 161.737 65.6444 161.84C67.5974 163.025 69.6032 164.111 71.6531 165.095C71.613 164.844 71.6097 164.575 71.6525 164.292L72.4826 158.803C71.8073 158.453 71.1377 158.09 70.4742 157.716L66.3277 161.401ZM165.326 92.528C165.439 93.2841 165.538 94.041 165.624 94.7983L171.036 95.9868C171.32 96.0493 171.573 96.1521 171.797 96.2829C171.612 94.0165 171.315 91.7513 170.905 89.4949C170.723 89.6797 170.505 89.8452 170.246 89.9795L165.326 92.528ZM57.4779 155.086C57.2317 155.244 56.9791 155.35 56.7276 155.416C58.4764 156.899 60.2899 158.288 62.16 159.581C62.1585 159.322 62.1965 159.052 62.2845 158.775L63.9612 153.493C63.3481 153.041 62.7424 152.576 62.1442 152.1L57.4779 155.086ZM48.9392 147.672C50.4358 149.416 52.0068 151.072 53.6454 152.639C53.6842 152.383 53.7642 152.121 53.8948 151.861L56.377 146.906C55.8437 146.363 55.3191 145.809 54.8033 145.245L49.7244 147.465C49.4592 147.581 49.1955 147.646 48.9392 147.672ZM168.094 78.8789C167.943 79.0875 167.755 79.2829 167.523 79.4543L163.059 82.7429C163.29 83.4719 163.507 84.2031 163.711 84.9364L169.243 85.2641C169.534 85.2813 169.801 85.343 170.042 85.4375C169.504 83.2352 168.855 81.0466 168.094 78.8789ZM77.2971 123.277L72.0125 94.5907L79.9032 90.035L102.218 122.686L93.458 127.743L78.8099 105.417L83.5308 133.475L79.446 135.833L59.5724 119.188L69.3412 141.667L64.2482 144.608L48.8616 107.957L55.3246 104.226L77.2971 123.277ZM113.552 107.786L125.366 100.966L128.984 107.233L108.309 119.169L88.5922 85.0184L97.4537 79.9022L113.552 107.786ZM138.293 64.2396L130.076 68.9838L146.365 97.1973L137.504 102.314L121.215 74.1L112.947 78.8734L109.519 72.9364L134.865 58.3026L138.293 64.2396ZM42.4652 138.808C43.6725 140.765 44.9613 142.642 46.3256 144.438C46.4042 144.194 46.5233 143.952 46.6906 143.718L49.9242 139.204C49.4848 138.587 49.0546 137.96 48.6344 137.323L43.2588 138.725C42.9839 138.797 42.7181 138.821 42.4652 138.808ZM163.654 68.8396C163.539 69.0647 163.386 69.2831 163.186 69.485L159.284 73.4399C159.625 74.1222 159.953 74.8081 160.267 75.4971L165.795 74.9536C166.08 74.9255 166.349 74.9441 166.599 74.9976C165.726 72.9182 164.745 70.8634 163.654 68.8396ZM26.6279 135.439C30.6822 133.099 35.8308 134.371 38.3454 138.258C38.4265 138.384 38.5051 138.511 38.5806 138.642C38.6561 138.773 38.7276 138.905 38.7956 139.038C40.9043 143.159 39.4322 148.254 35.3779 150.595C31.3236 152.936 26.175 151.663 23.6604 147.776C23.5793 147.651 23.5007 147.523 23.4252 147.392C23.3497 147.261 23.2782 147.129 23.2102 146.996C21.1015 142.875 22.5736 137.78 26.6279 135.439ZM165.031 47.1606C172.263 55.6869 176.66 53.3029 179.593 58.383C181.526 61.7311 180.379 66.0122 177.031 67.9452C173.683 69.8782 169.402 68.7311 167.469 65.383C164.536 60.3029 168.799 57.6869 165.031 47.1606ZM30.6507 147.806C31.092 148.258 31.5357 148.647 31.9687 148.962C32.5952 149.417 33.1795 149.706 33.6846 149.828C33.9492 149.892 34.1835 149.907 34.3897 149.883L32.65 146.87C31.9802 147.234 31.3088 147.546 30.6507 147.806ZM35.325 145.107C34.7713 145.547 34.1657 145.972 33.516 146.37L35.2557 149.383C35.3793 149.217 35.4835 149.006 35.5604 148.745C35.7073 148.247 35.7494 147.596 35.6679 146.826C35.6116 146.293 35.4964 145.715 35.325 145.107ZM38.5524 141.263C38.3598 141.718 38.0896 142.181 37.7561 142.64C37.3291 143.227 36.7887 143.82 36.1562 144.398C36.4147 145.215 36.5863 145.999 36.6627 146.721C36.7223 147.285 36.7239 147.821 36.6632 148.311C36.8387 148.124 37.003 147.928 37.1575 147.726C37.2408 147.617 37.3217 147.507 37.3987 147.394C37.7077 146.942 37.9641 146.459 38.1696 145.958C38.2017 145.879 38.2341 145.801 38.2635 145.722C38.3056 145.609 38.3449 145.495 38.3817 145.38C38.3973 145.331 38.4129 145.282 38.4275 145.233C38.5996 144.656 38.7035 144.06 38.7383 143.456C38.7584 143.107 38.7566 142.756 38.729 142.405C38.7023 142.064 38.6511 141.724 38.5782 141.386C38.5694 141.345 38.5619 141.304 38.5524 141.263ZM25.7097 148.679C26.8338 149.731 28.235 150.407 29.7158 150.657C29.7957 150.67 29.8757 150.683 29.956 150.694C30.0181 150.703 30.0802 150.711 30.1425 150.718C30.2822 150.734 30.4224 150.745 30.5629 150.753C30.9032 150.773 31.2456 150.771 31.588 150.745C31.7192 150.736 31.8503 150.721 31.9815 150.704C32.238 150.672 32.494 150.627 32.7486 150.568C32.7509 150.568 32.7531 150.567 32.7555 150.566C32.301 150.374 31.8383 150.104 31.3802 149.77C30.7932 149.343 30.1997 148.804 29.6212 148.171C28.8044 148.429 28.0211 148.601 27.2995 148.677C26.7359 148.737 26.1998 148.74 25.7097 148.679ZM28.517 145.03C28.964 145.757 29.4419 146.421 29.9326 147.009C30.6516 146.745 31.3982 146.41 32.1495 146.003L30.8199 143.7L28.517 145.03ZM33.0155 145.503C33.7432 145.056 34.4067 144.577 34.9943 144.087C34.7307 143.368 34.3955 142.622 33.9888 141.871L31.6859 143.2L33.0155 145.503ZM24.6359 147.271C24.8028 147.394 25.0138 147.498 25.275 147.575C25.7736 147.722 26.4239 147.764 27.1943 147.682C27.7265 147.626 28.3043 147.511 28.9124 147.34C28.4725 146.786 28.048 146.18 27.6501 145.53L24.6359 147.271ZM34.8557 141.37C35.2195 142.04 35.5312 142.711 35.7908 143.369C36.2434 142.927 36.6323 142.484 36.9472 142.051C37.403 141.425 37.6917 140.841 37.8138 140.335C37.8777 140.071 37.8936 139.836 37.8699 139.63L34.8557 141.37ZM26.2137 142.665C25.7613 143.107 25.3734 143.55 25.0586 143.983C24.6028 144.61 24.3141 145.194 24.192 145.699C24.1281 145.964 24.1122 146.198 24.1359 146.405L27.1501 144.664C26.7862 143.995 26.4733 143.324 26.2137 142.665ZM28.9903 140.531C28.2624 140.978 27.5979 141.456 27.0102 141.947C27.2738 142.666 27.6102 143.413 28.017 144.164L30.3199 142.834L28.9903 140.531ZM31.1859 142.334L33.4888 141.005C33.0416 140.277 32.5628 139.613 32.0719 139.025C31.3532 139.289 30.6072 139.625 29.8563 140.031L31.1859 142.334ZM33.092 138.694C33.5322 139.248 33.9576 139.854 34.3557 140.504L37.3699 138.764C37.2031 138.64 36.992 138.537 36.7308 138.46C36.2322 138.313 35.5819 138.271 34.8115 138.352C34.279 138.408 33.7006 138.523 33.092 138.694ZM37.4335 129.036C38.3067 131.116 39.2884 133.171 40.3793 135.195C40.4946 134.97 40.6488 134.752 40.8481 134.55L44.7501 130.596C44.4088 129.913 44.0812 129.227 43.7665 128.538L38.24 129.081C37.9535 129.11 37.6841 129.09 37.4335 129.036ZM157.707 59.5961C157.629 59.8397 157.511 60.0829 157.344 60.3166L154.11 64.8317C154.549 65.4487 154.979 66.0754 155.399 66.7121L160.776 65.3096C161.05 65.2381 161.315 65.214 161.568 65.2266C160.361 63.2698 159.072 61.3921 157.707 59.5961ZM29.2482 135.468C29.7032 135.661 30.1669 135.93 30.6256 136.264C31.2123 136.691 31.805 137.231 32.3832 137.863C33.2005 137.604 33.9844 137.434 34.7063 137.357C35.2704 137.298 35.8067 137.296 36.2971 137.357C36.1605 137.229 36.0192 137.107 35.8748 136.991C35.714 136.861 35.5491 136.737 35.3796 136.621C34.8427 136.254 34.2638 135.96 33.6593 135.739C33.5793 135.71 33.4989 135.682 33.418 135.655C32.5789 135.38 31.6948 135.249 30.8052 135.271C30.7737 135.271 30.742 135.271 30.7104 135.272C30.2219 135.29 29.7323 135.355 29.2482 135.468ZM25.3401 137.725C25.0007 138.087 24.6998 138.479 24.4402 138.892C24.4221 138.921 24.4058 138.951 24.3881 138.98C24.0012 139.615 23.7078 140.3 23.5169 141.012C23.1923 142.225 23.1612 143.516 23.4534 144.771C23.646 144.316 23.9162 143.853 24.2497 143.395C24.6766 142.808 25.216 142.214 25.8483 141.636C25.5899 140.819 25.4195 140.035 25.3431 139.314C25.2836 138.75 25.2796 138.214 25.3401 137.725ZM26.7496 136.65C26.6259 136.817 26.5223 137.028 26.4454 137.289C26.2986 137.788 26.2564 138.438 26.3379 139.209C26.3942 139.741 26.5082 140.319 26.6795 140.927C27.2333 140.487 27.8398 140.062 28.4898 139.664L26.7496 136.65ZM29.3558 139.164C30.0253 138.801 30.696 138.488 31.3538 138.229C30.9128 137.776 30.4698 137.388 30.0371 137.073C29.4106 136.617 28.8263 136.328 28.3212 136.206C28.0565 136.142 27.8219 136.127 27.6156 136.15L29.3558 139.164ZM33.9906 118.596C34.5284 120.799 35.1777 122.988 35.9397 125.156C36.0901 124.947 36.2792 124.752 36.512 124.581L40.9742 121.292C40.7432 120.563 40.5258 119.832 40.3223 119.098L34.7908 118.771C34.4992 118.754 34.2325 118.691 33.9906 118.596ZM150.387 51.3945C150.349 51.6513 150.27 51.9139 150.139 52.175L147.656 57.128C148.189 57.6712 148.714 58.2254 149.23 58.7902L154.31 56.5698C154.575 56.4541 154.838 56.3881 155.094 56.3622C153.597 54.6183 152.026 52.9615 150.387 51.3945ZM32.2363 107.753C32.421 110.019 32.718 112.284 33.128 114.54C33.3104 114.355 33.5295 114.19 33.7889 114.056L38.7068 111.507C38.5937 110.751 38.4942 109.994 38.4086 109.237L32.9978 108.049C32.7134 107.986 32.4599 107.884 32.2363 107.753ZM141.873 44.4533C141.874 44.7124 141.837 44.9833 141.749 45.2609L140.073 50.5409C140.686 50.9936 141.292 51.4582 141.89 51.9342L146.557 48.949C146.802 48.7917 147.055 48.6846 147.306 48.6192C145.557 47.1359 143.743 45.7464 141.873 44.4533ZM23.4139 109.511L23.5599 110.538L17.2292 111.438L21.4319 113.178L21.5286 113.863L17.9746 116.748L24.3143 115.846L24.4572 116.85L16.649 117.96L16.4863 116.817L20.3672 113.648L15.7639 111.736L15.6056 110.622L23.4139 109.511ZM153.45 32.0902L153.024 39.6989L156.868 34.739L157.66 35.3534L152.828 41.5867L151.975 40.9256L152.406 33.3044L148.554 38.2731L147.767 37.6619L152.599 31.4295L153.45 32.0902ZM32.2073 96.773C32.0349 99.0412 31.9722 101.322 32.022 103.607C32.23 103.454 32.4705 103.326 32.7457 103.235L38.0085 101.485C38.0156 100.723 38.0367 99.961 38.0709 99.2006L32.904 97.177C32.6369 97.0724 32.4056 96.9341 32.2073 96.773ZM132.378 38.9382C132.419 39.1906 132.424 39.4601 132.381 39.7439L131.549 45.2309C132.225 45.5815 132.896 45.9434 133.56 46.3186L137.707 42.6356C137.923 42.4431 138.154 42.2986 138.39 42.1947C136.436 41.009 134.429 39.9231 132.378 38.9382ZM23.0098 101.468L23.0503 102.557L20.8697 103.388L20.9901 106.655L23.2265 107.359L23.2657 108.442L15.2765 105.78L15.2351 104.668L23.0098 101.468ZM148.616 28.7717L146.909 37.0046L145.984 36.4265L146.518 34.1561L143.745 32.4242L141.909 33.882L140.989 33.308L147.672 28.1826L148.616 28.7717ZM20.0954 106.4L19.9961 103.718L16.3043 105.191L20.0954 106.4ZM144.457 31.8258L146.733 33.2472L147.583 29.3635L144.457 31.8258ZM33.8928 85.9229C33.3696 88.1359 32.9534 90.3748 32.6465 92.6313C32.8732 92.5159 33.127 92.4296 33.4086 92.383L38.888 91.4771C39.0135 90.7274 39.1527 89.9803 39.3047 89.236L34.5123 86.4256C34.2673 86.2819 34.0626 86.1108 33.8928 85.9229ZM122.14 34.9723C122.218 35.2135 122.264 35.4767 122.266 35.761L122.303 41.3171C123.024 41.5577 123.741 41.8101 124.453 42.0762L127.978 37.7834C128.159 37.5631 128.36 37.3865 128.573 37.248C126.465 36.3855 124.318 35.6257 122.14 34.9723ZM143.767 25.8431L140.032 32.7906L139.103 32.2916L142.837 25.3445L143.767 25.8431ZM16.5815 94.1731C16.9818 93.8751 17.4763 93.7161 18.0644 93.6947L18.0045 94.7532C17.608 94.7776 17.2764 94.8919 17.0105 95.0959C16.741 95.2958 16.535 95.552 16.3921 95.8646C16.2493 96.1734 16.1677 96.5093 16.1471 96.872C16.1113 97.5038 16.2263 98.0248 16.4925 98.4351C16.759 98.8414 17.127 99.1484 17.5965 99.355C18.0659 99.5616 18.5956 99.6813 19.1844 99.7147C19.7692 99.7479 20.3067 99.6883 20.7964 99.5361C21.2862 99.3839 21.6848 99.1207 21.9916 98.7469C22.2946 98.3689 22.4638 97.8639 22.4997 97.2323C22.5359 96.5928 22.4078 96.065 22.1146 95.6493C21.8213 95.2337 21.3624 94.9768 20.7383 94.8787L20.7982 93.8146C21.4148 93.9122 21.9194 94.1225 22.3118 94.4461C22.7004 94.7694 22.9826 95.1751 23.1584 95.6623C23.3341 96.1495 23.4056 96.6897 23.372 97.2823C23.3257 98.0973 23.1144 98.7737 22.7395 99.3119C22.3647 99.8501 21.8672 100.247 21.2463 100.501C20.6257 100.752 19.917 100.854 19.1214 100.809C18.3261 100.764 17.6323 100.582 17.0402 100.263C16.4482 99.9394 15.9966 99.4886 15.685 98.9115C15.3735 98.3343 15.2404 97.6381 15.2867 96.823C15.3172 96.2851 15.4399 95.7837 15.654 95.3187C15.8684 94.8496 16.1775 94.4671 16.5815 94.1731ZM134.072 23.3155C134.586 22.8785 135.168 22.618 135.819 22.5339C136.469 22.4497 137.167 22.575 137.911 22.9101C138.403 23.1314 138.827 23.4253 139.185 23.7918C139.546 24.1599 139.791 24.5849 139.921 25.0672C140.056 25.5477 140.028 26.0673 139.838 26.6241L138.87 26.1882C138.989 25.8092 139.002 25.459 138.906 25.1377C138.816 24.8145 138.651 24.5296 138.41 24.2842C138.173 24.0404 137.888 23.8443 137.557 23.6953C136.98 23.4356 136.453 23.3562 135.974 23.4578C135.5 23.561 135.082 23.7949 134.721 24.1591C134.359 24.5235 134.057 24.975 133.815 25.5129C133.575 26.0471 133.438 26.571 133.405 27.0828C133.371 27.5945 133.474 28.0608 133.713 28.481C133.958 28.8993 134.369 29.2385 134.946 29.4982C135.53 29.761 136.068 29.8302 136.562 29.7053C137.055 29.5803 137.459 29.2432 137.774 28.6954L138.746 29.1331C138.434 29.6738 138.057 30.0693 137.614 30.3198C137.173 30.5667 136.694 30.6855 136.177 30.6752C135.659 30.6648 135.129 30.5373 134.587 30.2937C133.843 29.9586 133.287 29.5198 132.918 28.9772C132.55 28.4344 132.358 27.8274 132.343 27.1566C132.332 26.4877 132.489 25.79 132.816 25.0636C133.143 24.337 133.562 23.7542 134.072 23.3155ZM24.7066 86.0315L24.5361 87.0603L20.9243 86.4607L20.217 90.7142L23.8293 91.3147L23.6564 92.355L15.8772 91.0627L16.0501 90.0224L19.3155 90.5649L20.0223 86.3105L16.756 85.7684L16.9275 84.7392L24.7066 86.0315ZM37.2475 75.46C36.385 77.5679 35.6252 79.7149 34.9718 81.8933C35.2129 81.8154 35.476 81.7705 35.7602 81.7686L41.3157 81.7309C41.5562 81.0103 41.8093 80.2937 42.0753 79.5817L37.783 76.0574C37.5622 75.8761 37.3862 75.6735 37.2475 75.46ZM111.403 32.6465C111.518 32.8733 111.606 33.1271 111.652 33.409L112.557 38.8893C113.307 39.0149 114.054 39.1535 114.799 39.3056L117.61 34.5127C117.753 34.268 117.924 34.0625 118.111 33.8928C115.898 33.3696 113.659 32.9534 111.403 32.6465ZM132.339 20.6264L129.644 28.0383L128.653 27.6778L131.349 20.2659L132.339 20.6264ZM123.736 17.9958L126.171 25.2174L127.893 19.1835L128.857 19.4582L126.692 27.0421L125.655 26.7464L123.217 19.5119L121.491 25.557L120.533 25.2832L122.699 17.7001L123.736 17.9958ZM42.1939 65.6444C41.0084 67.5981 39.9224 69.6044 38.9377 71.6549C39.19 71.6146 39.4593 71.6105 39.743 71.6534L45.2295 72.4844C45.5802 71.8086 45.9421 71.1379 46.3173 70.4739L42.6348 66.3281C42.4423 66.1113 42.2977 65.8806 42.1939 65.6444ZM100.428 32.0229C100.581 32.2309 100.709 32.4709 100.801 32.746L102.549 38.0086C103.311 38.0156 104.073 38.0381 104.833 38.0723L106.858 32.9049C106.962 32.6378 107.101 32.4065 107.262 32.2082C104.993 32.0357 102.713 31.973 100.428 32.0229ZM25.367 82.98L25.1196 84.0046L17.4528 82.1569L17.6997 81.1314L25.367 82.98ZM27.8852 74.8866L27.5557 75.9135L20.2447 78.1138L26.2316 80.0361L25.9267 80.9846L18.4181 78.573L18.7476 77.5461L26.0443 75.3484L20.0694 73.4293L20.3758 72.4755L27.8852 74.8866ZM114.591 16.1361L114.025 19.3981L118.274 20.1354L118.84 16.8743L119.868 17.0523L118.518 24.8227L117.491 24.6446L118.117 21.0364L113.869 20.2983L113.242 23.9065L112.203 23.726L113.552 15.9557L114.591 16.1361ZM48.6187 56.7276C47.1352 58.4769 45.7452 60.2904 44.4519 62.161C44.7113 62.1593 44.9821 62.1971 45.26 62.2853L50.5392 63.9622C50.9921 63.3489 51.4572 62.7432 51.9334 62.1447L48.9486 57.4787C48.7909 57.2324 48.6841 56.9794 48.6187 56.7276ZM89.4936 33.1285C89.6789 33.3111 89.8445 33.53 89.9791 33.7898L92.5261 38.7073C93.2827 38.5941 94.04 38.4951 94.7978 38.4095L95.986 32.9987C96.0484 32.7143 96.1507 32.4607 96.2815 32.2372C94.0151 32.4219 91.7499 32.7184 89.4936 33.1285ZM24.1448 65.5701L22.5793 69.2277L24.8906 70.2173L26.331 66.8508L27.1289 67.1918L25.6872 70.558L28.2132 71.6402L29.7796 67.9822L30.5875 68.3287L28.6063 72.9558L21.3563 69.8515L23.3374 65.2244L24.1448 65.5701ZM56.3617 48.9397C54.6178 50.4363 52.961 52.0073 51.3939 53.6459C51.6509 53.6847 51.9129 53.7648 52.1742 53.8957L57.1275 56.3775C57.6704 55.8442 58.2243 55.3196 58.7888 54.8038L56.5694 49.7253C56.4534 49.46 56.3875 49.1961 56.3617 48.9397ZM78.8775 35.9402C79.0867 36.0908 79.2822 36.2797 79.454 36.5129L82.7415 40.9747C83.4708 40.7436 84.2023 40.526 84.9359 40.3223L85.2633 34.7917C85.2805 34.5001 85.3422 34.2329 85.437 33.9911C83.2345 34.529 81.0455 35.1782 78.8775 35.9402ZM65.2261 42.4653C63.269 43.6729 61.391 44.9619 59.5947 46.3266C59.8389 46.4052 60.082 46.5237 60.3162 46.6915L64.8295 49.9247C65.4468 49.4851 66.0738 49.0548 66.7108 48.6344L65.3093 43.2596C65.2375 42.9845 65.2132 42.7183 65.2261 42.4653ZM68.8374 40.3803C69.0632 40.4957 69.2821 40.6491 69.4846 40.849L73.4386 44.7501C74.1208 44.4089 74.8067 44.0812 75.4958 43.7665L74.9532 38.2408C74.9251 37.9544 74.9433 37.6846 74.9971 37.434C72.9171 38.3073 70.8618 39.2891 68.8374 40.3803ZM105.697 15.7096C106.276 15.4019 106.974 15.2741 107.788 15.3255C108.326 15.3596 108.827 15.4852 109.29 15.7022C109.758 15.9196 110.137 16.2314 110.429 16.6371C110.724 17.0393 110.881 17.5346 110.899 18.1227L109.841 18.0559C109.819 17.6593 109.707 17.3272 109.505 17.0601C109.306 16.7893 109.051 16.5816 108.739 16.4367C108.431 16.292 108.096 16.208 107.733 16.1851C107.102 16.1453 106.58 16.257 106.168 16.5205C105.76 16.7844 105.452 17.1507 105.242 17.6187C105.033 18.0868 104.909 18.6152 104.872 19.2037C104.835 19.7885 104.891 20.3264 105.04 20.8173C105.189 21.308 105.449 21.7081 105.821 22.0173C106.197 22.3229 106.701 22.4962 107.332 22.5361C107.972 22.5764 108.5 22.4506 108.917 22.1601C109.335 21.8694 109.595 21.4121 109.697 20.7884L110.762 20.8562C110.66 21.4721 110.446 21.9754 110.12 22.3657C109.794 22.752 109.387 23.0312 108.899 23.2038C108.41 23.3765 107.87 23.4444 107.277 23.407C106.462 23.3555 105.787 23.1403 105.252 22.762C104.716 22.3837 104.322 21.8838 104.072 21.2613C103.825 20.6391 103.728 19.9303 103.778 19.1351C103.828 18.3398 104.015 17.6471 104.338 17.0569C104.665 16.467 105.118 16.0175 105.697 15.7096ZM32.1579 63.3242L33.9714 60.1155L34.7616 60.5625L32.4298 64.6896L25.5633 60.8101L26.0826 59.8912L32.1579 63.3242ZM102.182 15.1559L102.206 16.0338L98.2291 16.1456L98.2999 18.6589L101.961 18.556L101.984 19.423L98.3235 19.5259L98.4004 22.2724L102.378 22.1614L102.402 23.0394L97.3712 23.1812L97.1496 15.2973L102.182 15.1559ZM36.3692 53.0558C36.8524 53.3871 37.224 53.7713 37.4827 54.2092C37.7382 54.6447 37.8416 55.1284 37.7947 55.6596C37.7467 56.1856 37.5107 56.7579 37.0866 57.3765C36.6691 57.9854 36.2229 58.4093 35.7475 58.6469C35.2688 58.8823 34.78 58.9588 34.2816 58.8776C33.78 58.7941 33.2872 58.587 32.804 58.2557L28.716 55.4525L29.3191 54.5732L33.3007 57.3036C33.9773 57.7675 34.5616 57.9518 35.0525 57.8574C35.5424 57.7575 35.9785 57.4283 36.3606 56.871C36.7445 56.3108 36.8937 55.7861 36.8082 55.2966C36.7192 54.8047 36.3364 54.3261 35.6598 53.8623L31.6781 51.1318L32.2812 50.2525L36.3692 53.0558ZM95.3666 15.3829L95.464 16.2626L93.2396 16.5094L94.013 23.4681L92.9703 23.5841L92.1969 16.6254L89.9665 16.8735L89.8691 15.9938L95.3666 15.3829ZM35.5867 46.1283C36.0981 45.5223 36.629 45.1417 37.1786 44.987C37.7306 44.8295 38.2573 44.963 38.7588 45.3862C39.0752 45.6532 39.2816 45.981 39.3783 46.3693C39.4773 46.7544 39.4408 47.1247 39.2686 47.4801C39.69 47.1202 40.1383 46.9282 40.6131 46.9046C41.0848 46.8785 41.5145 47.0293 41.9025 47.3566C42.2667 47.664 42.5111 48.0081 42.6347 48.3885C42.7554 48.7664 42.7473 49.176 42.61 49.6172C42.4727 50.0585 42.1942 50.5267 41.776 51.0223L39.9821 53.1496L33.9545 48.0629L35.5867 46.1283ZM40.0819 47.8439C39.7002 47.951 39.3236 48.2237 38.9533 48.6624L37.85 49.9703L39.9903 51.777L41.0935 50.4691C41.3076 50.2155 41.4739 49.9548 41.5926 49.6871C41.7083 49.4168 41.7403 49.149 41.6875 48.8846C41.6317 48.6177 41.4601 48.3632 41.1736 48.1214C40.8274 47.8293 40.4635 47.737 40.0819 47.8439ZM80.231 17.9916L85.8769 23.1103L84.4404 17.0013L85.4163 16.7716L87.2208 24.4498L86.1711 24.6961L80.5172 19.5674L81.9565 25.6872L80.9862 25.9148L79.1813 18.2379L80.231 17.9916ZM41.3079 39.9654C41.6331 39.6443 41.9785 39.4044 42.3441 39.2465C42.7125 39.0859 43.0845 39.0377 43.4598 39.1008C43.8349 39.164 44.1956 39.3701 44.5413 39.7202C44.8926 40.0759 45.0914 40.4782 45.1383 40.926C45.1879 41.371 45.0651 41.8272 44.7694 42.2948C45.0108 42.1168 45.2519 42.0134 45.4923 41.9846C45.7327 41.9557 45.9865 41.9879 46.2537 42.0806C46.5211 42.1679 46.8187 42.311 47.1462 42.5092L48.9006 43.5519L48.1336 44.3094L46.5401 43.3383C46.2567 43.1625 45.9967 43.032 45.7597 42.9477C45.5227 42.8578 45.2989 42.8344 45.0887 42.8773C44.8759 42.9174 44.662 43.0427 44.4481 43.2539L43.1314 44.5554L45.4778 46.932L44.7268 47.6723L39.1857 42.0612L41.3079 39.9654ZM71.3955 21.2603C71.8074 20.7499 72.402 20.3569 73.179 20.0818C73.9558 19.8069 74.663 19.7386 75.3005 19.8775C75.9381 20.0164 76.4918 20.3263 76.9602 20.8069C77.4322 21.2861 77.8005 21.9015 78.0664 22.6525C78.3322 23.4035 78.4321 24.1121 78.3654 24.7779C78.3024 25.4424 78.0671 26.0298 77.6591 26.5389C77.251 27.048 76.6581 27.4403 75.8812 27.7153C75.1043 27.9903 74.3949 28.0585 73.7536 27.9209C73.1124 27.7833 72.5557 27.4768 72.0849 27.0012C71.6179 26.5244 71.2514 25.9105 70.9856 25.1596C70.7197 24.4085 70.6179 23.6985 70.6797 23.0302C70.7451 22.3607 70.9838 21.7707 71.3955 21.2603ZM50.7494 41.9241L49.9507 42.613L44.7997 36.6403L45.5984 35.9514L50.7494 41.9241ZM36.8967 46.1297C36.6794 46.2479 36.4629 46.4358 36.2462 46.6925L35.2973 47.8165L37.1957 49.419L38.1445 48.2949C38.4719 47.907 38.633 47.5371 38.6284 47.1856C38.6231 46.8285 38.4696 46.5218 38.1681 46.2673C37.9652 46.0962 37.7576 46.0005 37.5453 45.9796C37.3299 45.9563 37.1135 46.006 36.8967 46.1297ZM73.4662 20.8937C72.8696 21.1048 72.4333 21.4129 72.1579 21.8171C71.885 22.216 71.7449 22.6736 71.7371 23.1899C71.728 23.7027 71.8212 24.2376 72.018 24.7936C72.2135 25.3459 72.4773 25.8204 72.8083 26.2171C73.138 26.61 73.5347 26.8757 73.998 27.0141C74.4651 27.1513 74.9975 27.1146 75.594 26.9035C76.1902 26.6923 76.625 26.3872 76.898 25.9882C77.1711 25.5891 77.3122 25.1325 77.3212 24.6196C77.3326 24.1018 77.2406 23.5667 77.045 23.0143C76.8482 22.4583 76.5826 21.9846 76.2492 21.5929C75.9182 21.1964 75.5215 20.9283 75.0582 20.7898C74.5935 20.6477 74.0627 20.6825 73.4662 20.8937ZM50.3005 32.2071C50.7332 31.8856 51.1967 31.6574 51.691 31.5238C52.1884 31.3879 52.6793 31.3807 53.1638 31.5023C53.6491 31.6186 54.0883 31.8961 54.4816 32.3337L53.6309 32.9658C53.3581 32.6772 53.058 32.4964 52.7312 32.423C52.4051 32.3442 52.0759 32.3496 51.7443 32.4402C51.4158 32.5286 51.1053 32.682 50.8137 32.8986C50.3059 33.2758 49.9796 33.6978 49.8352 34.1649C49.6941 34.6298 49.6949 35.1088 49.837 35.6016C49.9793 36.0944 50.2264 36.5778 50.5781 37.0512C50.9274 37.5214 51.3171 37.8961 51.7477 38.1746C52.1784 38.4531 52.6363 38.5906 53.12 38.5866C53.6043 38.5771 54.1002 38.3832 54.6081 38.0059C55.1224 37.6239 55.4457 37.1872 55.5769 36.6956C55.7079 36.2041 55.6109 35.687 55.286 35.145L56.1421 34.5087C56.4623 35.0444 56.6241 35.5671 56.6273 36.0756C56.6281 36.5811 56.4972 37.0576 56.2358 37.5049C55.9744 37.9521 55.6054 38.3526 55.1288 38.7067C54.4735 39.1935 53.8191 39.466 53.1657 39.5232C52.5125 39.5803 51.8892 39.4523 51.2963 39.1388C50.7063 38.8228 50.1734 38.3444 49.6981 37.7048C49.223 37.0651 48.9185 36.4154 48.784 35.7562C48.6527 35.0948 48.7089 34.4593 48.9523 33.8504C49.1957 33.2414 49.6453 32.6938 50.3005 32.2071ZM67.5832 22.2763L70.7482 29.5005L69.7826 29.9238L66.6176 22.6996L67.5832 22.2763ZM65.163 23.3578L65.5651 24.1462L63.5711 25.1632L66.7509 31.4012L65.817 31.8773L62.6372 25.6393L60.6376 26.6584L60.2355 25.8701L65.163 23.3578ZM64.1512 32.6834L63.2195 33.2495L61.432 31.7511L58.638 33.4488L59.114 35.7439L58.1874 36.307L56.6159 28.0343L57.5673 27.4556L64.1512 32.6834ZM42.9145 40.1328C42.5581 40.1389 42.2034 40.3163 41.8504 40.6648L40.5539 41.9445L42.5132 43.9301L43.7895 42.67C43.9951 42.4669 44.1425 42.244 44.2324 42.0015C44.3223 41.7591 44.3436 41.5161 44.2954 41.2728C44.2501 41.0267 44.1243 40.799 43.9185 40.5906C43.6084 40.2765 43.2736 40.1241 42.9145 40.1328ZM58.4236 32.5442L60.7174 31.15L57.6312 28.6445L58.4236 32.5442Z" fill="white"/>
</g>
<defs>
<clipPath id="clip0_425_665">
<rect width="205" height="205" fill="white"/>
</clipPath>
</defs>
</svg>
