<svg width="156" height="156" viewBox="0 0 156 156" fill="none" xmlns="http://www.w3.org/2000/svg">
<g opacity="0.2" clip-path="url(#clip0_425_660)">
<path d="M51.017 13.6824C99.8028 -14.4841 162.185 2.23119 190.352 51.017C218.518 99.8028 201.803 162.185 153.017 190.352C104.231 218.518 41.8489 201.803 13.6824 153.017C-14.4841 104.231 2.23115 41.8489 51.017 13.6824ZM54.017 18.8786C8.10091 45.3882 -7.6311 104.101 18.8785 150.017C45.3882 195.933 104.101 211.665 150.017 185.156C195.933 158.646 211.665 99.9331 185.155 54.017C158.646 8.10094 99.9331 -7.63107 54.017 18.8786ZM55.517 21.4766C99.9982 -4.20457 156.876 11.0358 182.557 55.517C208.239 99.9982 192.998 156.876 148.517 182.558C104.036 208.239 47.1578 192.998 21.4766 148.517C-4.2046 104.036 11.0358 47.1579 55.517 21.4766ZM56.017 22.3427C12.014 47.7478 -3.06243 104.014 22.3426 148.017C47.7477 192.02 104.014 207.097 148.017 181.692C192.02 156.286 207.096 100.02 181.691 56.017C156.286 12.0141 100.02 -3.0624 56.017 22.3427ZM142.591 168.32L143.094 169.214L139.049 171.491L140.49 174.046L144.211 171.949L144.708 172.831L140.986 174.928L142.56 177.721L146.604 175.443L147.106 176.337L141.99 179.218L137.475 171.202L142.591 168.32ZM146.79 165.486C147.227 165.18 147.672 164.973 148.123 164.863C148.578 164.751 149.015 164.769 149.434 164.915C149.853 165.062 150.227 165.371 150.556 165.841C150.89 166.32 151.039 166.821 151.005 167.345C150.974 167.866 150.743 168.367 150.311 168.847C150.624 168.69 150.921 168.618 151.203 168.632C151.485 168.646 151.771 168.733 152.061 168.893C152.351 169.046 152.664 169.269 153.002 169.561L154.814 171.106L153.782 171.826L152.142 170.395C151.851 170.137 151.576 169.936 151.32 169.792C151.066 169.642 150.813 169.571 150.563 169.579C150.311 169.583 150.04 169.686 149.752 169.887L147.982 171.122L150.211 174.318L149.203 175.023L143.936 167.477L146.79 165.486ZM130.582 174.77C131.022 174.144 131.68 173.643 132.554 173.267C133.132 173.018 133.72 172.884 134.317 172.866C134.919 172.845 135.478 172.969 135.995 173.238C136.515 173.501 136.939 173.934 137.268 174.536L136.131 175.024C135.899 174.623 135.607 174.338 135.256 174.167C134.907 173.989 134.531 173.907 134.131 173.921C133.734 173.933 133.341 174.022 132.952 174.19C132.274 174.482 131.79 174.873 131.5 175.365C131.215 175.855 131.087 176.399 131.116 176.996C131.145 177.594 131.295 178.209 131.567 178.841C131.837 179.469 132.179 179.999 132.593 180.431C133.007 180.863 133.49 181.142 134.04 181.268C134.592 181.387 135.208 181.301 135.886 181.01C136.572 180.714 137.056 180.305 137.338 179.782C137.619 179.26 137.647 178.647 137.424 177.944L138.568 177.452C138.787 178.146 138.83 178.783 138.697 179.361C138.562 179.935 138.285 180.441 137.868 180.879C137.451 181.316 136.924 181.672 136.288 181.945C135.413 182.322 134.597 182.454 133.84 182.343C133.083 182.232 132.41 181.919 131.821 181.403C131.236 180.886 130.76 180.201 130.393 179.347C130.025 178.493 129.854 177.673 129.879 176.889C129.908 176.102 130.141 175.396 130.582 174.77ZM155.159 160.207L153.165 161.893L158.438 168.132L157.502 168.922L152.23 162.683L150.231 164.372L149.565 163.583L154.493 159.419L155.159 160.207ZM120.949 177.418L123.085 185.274L127.234 184.146L127.512 185.169L122.176 186.62L119.762 177.741L120.949 177.418ZM162.702 164.317L161.817 165.171L155.428 158.55L156.313 157.696L162.702 164.317ZM162.552 152.462L159.54 155.802L161.722 157.771L164.451 154.745L165.197 155.419L162.468 158.444L165.611 161.278L164.786 162.192L157.954 156.029L161.791 151.775L162.552 152.462ZM110.663 179.215L114.409 183.703L116.582 178.306L117.879 178.108L119.274 187.203L118.079 187.386L116.946 180.013L114.971 184.937L114.174 185.06L110.762 180.95L111.896 188.335L110.727 188.514L109.332 179.419L110.663 179.215ZM147.275 166.397L145.532 167.614L147.395 170.282L149.11 169.085C149.387 168.892 149.601 168.664 149.752 168.403C149.903 168.142 149.975 167.867 149.967 167.577C149.963 167.286 149.864 167 149.668 166.719C149.373 166.297 149.019 166.056 148.604 165.995C148.193 165.932 147.75 166.066 147.275 166.397ZM170.768 155.303L170.011 156.272L162.759 150.61L163.516 149.64L170.768 155.303ZM169.007 143.473L166.424 147.329L168.859 148.962L171.238 145.412L172.079 145.975L169.7 149.525L172.363 151.309L174.947 147.454L175.799 148.024L172.53 152.902L164.887 147.78L168.155 142.902L169.007 143.473ZM101.78 180.181C102.421 179.762 103.217 179.541 104.17 179.515C104.798 179.498 105.393 179.591 105.955 179.795C106.521 179.998 106.995 180.321 107.376 180.762C107.761 181.198 107.996 181.757 108.078 182.439L106.841 182.472C106.774 182.014 106.609 181.64 106.346 181.351C106.087 181.057 105.769 180.842 105.392 180.706C105.019 180.57 104.621 180.508 104.197 180.52C103.459 180.54 102.864 180.724 102.413 181.074C101.967 181.423 101.646 181.881 101.452 182.446C101.257 183.012 101.169 183.64 101.188 184.327C101.206 185.011 101.328 185.63 101.552 186.185C101.777 186.74 102.122 187.177 102.586 187.497C103.055 187.813 103.659 187.96 104.397 187.94C105.144 187.92 105.745 187.72 106.2 187.338C106.654 186.957 106.908 186.398 106.961 185.663L108.206 185.629C108.152 186.355 107.957 186.962 107.619 187.45C107.281 187.933 106.837 188.301 106.287 188.553C105.738 188.805 105.117 188.94 104.424 188.958C103.472 188.984 102.665 188.806 102.003 188.423C101.341 188.039 100.832 187.499 100.475 186.802C100.124 186.105 99.9354 185.292 99.9103 184.362C99.8852 183.433 100.029 182.608 100.342 181.888C100.66 181.169 101.139 180.599 101.78 180.181ZM172.01 136.948C172.645 136.515 173.35 136.303 174.125 136.31C174.899 136.316 175.714 136.544 176.568 136.995C177.427 137.448 178.077 137.995 178.517 138.635C178.96 139.27 179.181 139.972 179.183 140.74C179.184 141.509 178.962 142.317 178.516 143.163L177.07 145.902L168.932 141.608L170.378 138.869C170.826 138.018 171.371 137.378 172.01 136.948ZM172.429 138.027C171.955 138.369 171.533 138.891 171.163 139.592L170.419 141.001L176.731 144.332L177.475 142.923C177.851 142.21 178.049 141.562 178.068 140.979C178.083 140.395 177.916 139.866 177.567 139.394C177.217 138.915 176.685 138.487 175.972 138.111C175.262 137.736 174.614 137.544 174.027 137.533C173.438 137.516 172.905 137.681 172.429 138.027ZM98.0124 179.69L97.5221 188.878L96.2936 188.813L96.7838 179.625L98.0124 179.69ZM66.017 39.6632C100.454 19.7809 144.489 31.5799 164.371 66.017C184.253 100.454 172.454 144.489 138.017 164.371C103.58 184.253 59.5454 172.454 39.6631 138.017C19.7809 103.58 31.5799 59.5454 66.017 39.6632ZM129.081 165.796C129.109 166.081 129.09 166.35 129.036 166.599C131.115 165.726 133.17 164.745 135.194 163.655C134.969 163.539 134.751 163.386 134.549 163.187L130.593 159.284C129.911 159.625 129.226 159.953 128.537 160.267L129.081 165.796ZM139.201 154.11C138.585 154.549 137.958 154.979 137.322 155.399L138.725 160.777C138.796 161.051 138.819 161.316 138.806 161.569C140.763 160.361 142.641 159.073 144.437 157.709C144.193 157.63 143.951 157.512 143.718 157.345L139.201 154.11ZM118.77 169.244C118.753 169.535 118.69 169.801 118.596 170.043C120.798 169.505 122.986 168.856 125.154 168.094C124.946 167.944 124.751 167.756 124.58 167.524L121.29 163.06C120.561 163.291 119.83 163.508 119.097 163.712L118.77 169.244ZM146.904 147.657C146.361 148.19 145.807 148.715 145.243 149.231L147.465 154.311C147.58 154.576 147.645 154.839 147.671 155.094C149.415 153.598 151.072 152.027 152.639 150.388C152.382 150.349 152.12 150.271 151.859 150.14L146.904 147.657ZM108.048 171.037C107.985 171.321 107.882 171.573 107.751 171.797C110.017 171.612 112.282 171.316 114.538 170.906C114.354 170.724 114.189 170.505 114.055 170.247L111.505 165.326C110.749 165.439 109.993 165.539 109.236 165.625L108.048 171.037ZM153.492 140.073C153.039 140.687 152.575 141.292 152.099 141.891L155.085 146.558C155.243 146.803 155.348 147.055 155.414 147.306C156.897 145.558 158.287 143.745 159.579 141.875C159.321 141.876 159.051 141.838 158.774 141.75L153.492 140.073ZM97.1761 171.131C97.0716 171.397 96.9332 171.628 96.7725 171.826C99.0403 171.998 101.32 172.061 103.604 172.011C103.452 171.803 103.325 171.563 103.234 171.289L101.484 166.025C100.722 166.018 99.9602 165.997 99.2001 165.962L97.1761 171.131ZM158.803 131.551C158.452 132.226 158.09 132.896 157.715 133.56L161.4 137.707C161.592 137.923 161.735 138.154 161.839 138.389C163.024 136.436 164.11 134.43 165.095 132.38C164.843 132.42 164.574 132.425 164.291 132.382L158.803 131.551ZM72.0175 50.0563C54.53 60.1528 44.0481 77.7228 42.2764 96.4027C42.2537 96.6423 42.2322 96.882 42.2124 97.1219C41.5177 105.516 42.5813 114.118 45.5573 122.351C45.6423 122.586 45.7284 122.822 45.8166 123.056C46.1692 123.995 46.5473 124.928 46.9502 125.856C47.1517 126.319 47.3597 126.782 47.5738 127.242C48.1982 128.586 48.877 129.916 49.6101 131.23C49.7567 131.493 49.9045 131.756 50.0554 132.017C50.4574 132.713 50.8718 133.398 51.2971 134.072C51.8951 135.02 52.516 135.945 53.1582 136.848C53.9873 138.014 54.8522 139.143 55.7507 140.233C56.1285 140.692 56.5123 141.143 56.9017 141.588C57.1084 141.824 57.3164 142.059 57.5263 142.291C58.1446 142.976 58.7771 143.643 59.4224 144.294C61.2118 146.099 63.1013 147.776 65.0778 149.318C65.323 149.509 65.5694 149.699 65.8172 149.886C66.0976 150.098 66.3797 150.307 66.6634 150.514C66.7915 150.607 66.9198 150.7 67.0485 150.792C67.6361 151.213 68.2304 151.622 68.8312 152.02C69.3716 152.378 69.9175 152.727 70.4682 153.066C71.4207 153.654 72.3881 154.213 73.3691 154.745C73.8363 154.999 74.3066 155.245 74.7799 155.486C78.2517 157.25 81.8813 158.67 85.6121 159.73C86.1063 159.87 86.6021 160.005 87.0997 160.133C90.9616 161.124 94.9225 161.733 98.9208 161.944C99.3278 161.965 99.7351 161.983 100.143 161.996C107.288 162.226 114.532 161.181 121.527 158.768C121.602 158.742 121.678 158.715 121.754 158.689C125.253 157.466 128.689 155.9 132.017 153.979C160.715 137.41 170.547 100.715 153.978 72.017C153.828 71.7555 153.675 71.4957 153.52 71.2373C153.11 70.5503 152.687 69.8748 152.254 69.2101C151.274 67.7065 150.236 66.2603 149.146 64.8728C148.822 64.4613 148.494 64.055 148.161 63.6539C147.91 63.3515 147.658 63.0513 147.402 62.7549C144.051 58.8726 140.265 55.4994 136.163 52.6652C135.921 52.4983 135.679 52.3331 135.435 52.1699C135.201 52.0131 134.966 51.8575 134.73 51.7043C134.292 51.4205 133.852 51.1423 133.408 50.8705C132.029 50.0259 130.619 49.2399 129.182 48.5121C129.114 48.4777 129.046 48.443 128.978 48.4089L128.331 48.0889C128.183 48.0168 128.034 47.946 127.885 47.8751C127.687 47.7806 127.488 47.6868 127.289 47.5945C110.828 39.9682 91.1649 39.9012 74.048 48.9347C73.367 49.2941 72.6901 49.668 72.0175 50.0563ZM86.4247 169.522C86.2812 169.767 86.1099 169.971 85.9224 170.141C88.1354 170.664 90.3743 171.08 92.6308 171.387C92.5158 171.161 92.4291 170.908 92.3826 170.627L91.476 165.145C90.7264 165.019 89.9793 164.88 89.235 164.728L86.4247 169.522ZM162.717 122.304C162.476 123.025 162.223 123.741 161.957 124.453L166.252 127.978C166.472 128.159 166.648 128.361 166.786 128.573C167.648 126.466 168.407 124.319 169.06 122.141C168.82 122.218 168.557 122.265 168.274 122.266L162.717 122.304ZM76.057 166.252C75.8759 166.473 75.6732 166.648 75.4599 166.787C77.5676 167.649 79.7146 168.408 81.8928 169.062C81.8153 168.821 81.7701 168.559 81.7682 168.275L81.7299 162.717C81.0095 162.476 80.2929 162.224 79.5812 161.958L76.057 166.252ZM165.144 112.558C165.019 113.308 164.88 114.055 164.728 114.799L169.522 117.611C169.766 117.754 169.971 117.924 170.14 118.112C170.664 115.899 171.08 113.66 171.387 111.403C171.16 111.519 170.907 111.606 170.626 111.653L165.144 112.558ZM125.838 137.916L121.184 140.603L111.983 124.666L116.636 121.98L125.838 137.916ZM166.024 102.551C166.017 103.313 165.996 104.074 165.961 104.835L171.13 106.859C171.396 106.963 171.627 107.101 171.825 107.262C171.997 104.994 172.061 102.714 172.011 100.43C171.803 100.582 171.563 100.71 171.288 100.802L166.024 102.551ZM66.3277 161.401C66.1111 161.593 65.8804 161.737 65.6444 161.84C67.5974 163.025 69.6032 164.111 71.6531 165.095C71.613 164.844 71.6097 164.575 71.6525 164.292L72.4825 158.803C71.8073 158.453 71.1377 158.09 70.4742 157.716L66.3277 161.401ZM165.325 92.528C165.439 93.2841 165.538 94.041 165.624 94.7983L171.036 95.9868C171.32 96.0493 171.573 96.1521 171.796 96.2829C171.612 94.0165 171.315 91.7513 170.905 89.4949C170.723 89.6797 170.505 89.8452 170.246 89.9795L165.325 92.528ZM57.4779 155.086C57.2317 155.244 56.9791 155.35 56.7276 155.416C58.4764 156.899 60.2899 158.288 62.16 159.581C62.1585 159.322 62.1965 159.052 62.2844 158.775L63.9612 153.493C63.3481 153.041 62.7424 152.576 62.1441 152.1L57.4779 155.086ZM48.9392 147.672C50.4358 149.416 52.0068 151.072 53.6453 152.639C53.6842 152.383 53.7642 152.121 53.8948 151.861L56.3769 146.906C55.8437 146.363 55.3191 145.809 54.8032 145.245L49.7244 147.465C49.4592 147.581 49.1955 147.646 48.9392 147.672ZM168.093 78.8789C167.943 79.0875 167.755 79.2829 167.522 79.4543L163.059 82.7429C163.29 83.4719 163.507 84.2031 163.711 84.9364L169.243 85.2641C169.534 85.2813 169.8 85.343 170.042 85.4375C169.504 83.2352 168.855 81.0466 168.093 78.8789ZM77.297 123.277L72.0125 94.5907L79.9031 90.035L102.218 122.686L93.458 127.743L78.8099 105.417L83.5308 133.475L79.4459 135.833L59.5723 119.188L69.3412 141.667L64.2482 144.608L48.8615 107.957L55.3246 104.226L77.297 123.277ZM111.82 108.786L123.633 101.966L127.252 108.233L106.577 120.169L86.8601 86.0184L95.7216 80.9022L111.82 108.786ZM158.33 90.2891L149.164 95.581L142.393 89.4772L131.794 95.5964L133.618 104.557L127.992 107.805L120.556 66.5643L126.308 63.2431L158.33 90.2891ZM42.4652 138.808C43.6725 140.765 44.9613 142.642 46.3256 144.438C46.4042 144.194 46.5233 143.952 46.6906 143.718L49.9242 139.204C49.4848 138.587 49.0546 137.96 48.6344 137.323L43.2587 138.725C42.9839 138.797 42.7181 138.821 42.4652 138.808ZM163.654 68.8396C163.539 69.0647 163.386 69.2831 163.186 69.485L159.283 73.4399C159.625 74.1222 159.952 74.8081 160.267 75.4971L165.794 74.9536C166.08 74.9255 166.349 74.9441 166.599 74.9976C165.726 72.9182 164.745 70.8634 163.654 68.8396ZM26.6279 135.439C30.6822 133.099 35.8308 134.371 38.3454 138.258C38.4265 138.384 38.5051 138.511 38.5806 138.642C38.6561 138.773 38.7275 138.905 38.7956 139.038C40.9043 143.159 39.4322 148.254 35.3779 150.595C31.3236 152.936 26.175 151.663 23.6604 147.776C23.5793 147.651 23.5007 147.523 23.4252 147.392C23.3497 147.261 23.2782 147.129 23.2102 146.996C21.1015 142.875 22.5736 137.78 26.6279 135.439ZM165.031 47.1606C172.263 55.6869 176.66 53.3029 179.593 58.383C181.526 61.7311 180.379 66.0122 177.031 67.9452C173.683 69.8782 169.402 68.7311 167.469 65.383C164.536 60.3029 168.799 57.6869 165.031 47.1606ZM30.6506 147.806C31.092 148.258 31.5357 148.647 31.9687 148.962C32.5952 149.417 33.1794 149.706 33.6846 149.828C33.9491 149.892 34.1835 149.907 34.3897 149.883L32.6499 146.87C31.9802 147.234 31.3088 147.546 30.6506 147.806ZM35.325 145.107C34.7713 145.547 34.1657 145.972 33.516 146.37L35.2557 149.383C35.3793 149.217 35.4835 149.006 35.5604 148.745C35.7072 148.247 35.7494 147.596 35.6679 146.826C35.6116 146.293 35.4964 145.715 35.325 145.107ZM38.5524 141.263C38.3598 141.718 38.0896 142.181 37.7561 142.64C37.329 143.227 36.7886 143.82 36.1562 144.398C36.4147 145.215 36.5863 145.999 36.6626 146.721C36.7223 147.285 36.7239 147.821 36.6632 148.311C36.8387 148.124 37.003 147.928 37.1575 147.726C37.2408 147.617 37.3216 147.507 37.3987 147.394C37.7077 146.942 37.9641 146.459 38.1696 145.958C38.2017 145.879 38.234 145.801 38.2635 145.722C38.3056 145.609 38.3449 145.495 38.3817 145.38C38.3973 145.331 38.4128 145.282 38.4275 145.233C38.5995 144.656 38.7035 144.06 38.7383 143.456C38.7584 143.107 38.7566 142.756 38.729 142.405C38.7022 142.064 38.6511 141.724 38.5782 141.386C38.5694 141.345 38.5619 141.304 38.5524 141.263ZM25.7097 148.679C26.8338 149.731 28.235 150.407 29.7157 150.657C29.7956 150.67 29.8757 150.683 29.956 150.694C30.0181 150.703 30.0802 150.711 30.1425 150.718C30.2821 150.734 30.4223 150.745 30.5629 150.753C30.9031 150.773 31.2455 150.771 31.5879 150.745C31.7192 150.736 31.8503 150.721 31.9814 150.704C32.238 150.672 32.494 150.627 32.7485 150.568C32.7508 150.568 32.7531 150.567 32.7554 150.566C32.301 150.374 31.8383 150.104 31.3802 149.77C30.7932 149.343 30.1997 148.804 29.6212 148.171C28.8044 148.429 28.0211 148.601 27.2995 148.677C26.7359 148.737 26.1997 148.74 25.7097 148.679ZM28.517 145.03C28.9639 145.757 29.4419 146.421 29.9326 147.009C30.6516 146.745 31.3982 146.41 32.1495 146.003L30.8199 143.7L28.517 145.03ZM33.0155 145.503C33.7431 145.056 34.4067 144.577 34.9942 144.087C34.7307 143.368 34.3955 142.622 33.9888 141.871L31.6859 143.2L33.0155 145.503ZM24.6359 147.271C24.8027 147.394 25.0138 147.498 25.275 147.575C25.7736 147.722 26.4239 147.764 27.1943 147.682C27.7264 147.626 28.3043 147.511 28.9124 147.34C28.4725 146.786 28.0479 146.18 27.6501 145.53L24.6359 147.271ZM34.8557 141.37C35.2194 142.04 35.5312 142.711 35.7907 143.369C36.2434 142.927 36.6322 142.484 36.9472 142.051C37.403 141.425 37.6916 140.841 37.8138 140.335C37.8777 140.071 37.8936 139.836 37.8699 139.63L34.8557 141.37ZM130.081 88.7033L137.229 84.5763L127.463 75.7786L130.081 88.7033ZM26.2137 142.665C25.7612 143.107 25.3734 143.55 25.0585 143.983C24.6028 144.61 24.3141 145.194 24.192 145.699C24.128 145.964 24.1122 146.198 24.1359 146.405L27.1501 144.664C26.7862 143.995 26.4733 143.324 26.2137 142.665ZM28.9903 140.531C28.2624 140.978 27.5979 141.456 27.0102 141.947C27.2737 142.666 27.6102 143.413 28.017 144.164L30.3199 142.834L28.9903 140.531ZM31.1859 142.334L33.4888 141.005C33.0416 140.277 32.5628 139.613 32.0719 139.025C31.3532 139.289 30.6072 139.625 29.8563 140.031L31.1859 142.334ZM33.092 138.694C33.5322 139.248 33.9576 139.854 34.3557 140.504L37.3699 138.764C37.203 138.64 36.992 138.537 36.7308 138.46C36.2322 138.313 35.5819 138.271 34.8115 138.352C34.279 138.408 33.7006 138.523 33.092 138.694ZM37.4335 129.036C38.3066 131.116 39.2883 133.171 40.3793 135.195C40.4946 134.97 40.6487 134.752 40.8481 134.55L44.7501 130.596C44.4088 129.913 44.0811 129.227 43.7664 128.538L38.2399 129.081C37.9535 129.11 37.6841 129.09 37.4335 129.036ZM157.707 59.5961C157.628 59.8397 157.511 60.0829 157.344 60.3166L154.109 64.8317C154.549 65.4487 154.979 66.0754 155.399 66.7121L160.776 65.3096C161.05 65.2381 161.315 65.214 161.568 65.2266C160.36 63.2698 159.072 61.3921 157.707 59.5961ZM29.2481 135.468C29.7032 135.661 30.1669 135.93 30.6255 136.264C31.2123 136.691 31.805 137.231 32.3832 137.863C33.2004 137.604 33.9844 137.434 34.7063 137.357C35.2703 137.298 35.8067 137.296 36.2971 137.357C36.1604 137.229 36.0192 137.107 35.8747 136.991C35.714 136.861 35.5491 136.737 35.3796 136.621C34.8426 136.254 34.2638 135.96 33.6593 135.739C33.5792 135.71 33.4989 135.682 33.418 135.655C32.5789 135.38 31.6948 135.249 30.8052 135.271C30.7736 135.271 30.742 135.271 30.7104 135.272C30.2219 135.29 29.7323 135.355 29.2481 135.468ZM25.34 137.725C25.0006 138.087 24.6998 138.479 24.4402 138.892C24.4221 138.921 24.4058 138.951 24.3881 138.98C24.0012 139.615 23.7078 140.3 23.5169 141.012C23.1922 142.225 23.1612 143.516 23.4533 144.771C23.6459 144.316 23.9161 143.853 24.2497 143.395C24.6766 142.808 25.216 142.214 25.8483 141.636C25.5898 140.819 25.4194 140.035 25.3431 139.314C25.2835 138.75 25.2796 138.214 25.34 137.725ZM26.7496 136.65C26.6259 136.817 26.5223 137.028 26.4453 137.289C26.2985 137.788 26.2564 138.438 26.3378 139.209C26.3941 139.741 26.5082 140.319 26.6794 140.927C27.2333 140.487 27.8398 140.062 28.4898 139.664L26.7496 136.65ZM29.3558 139.164C30.0252 138.801 30.6959 138.488 31.3538 138.229C30.9127 137.776 30.4698 137.388 30.0371 137.073C29.4106 136.617 28.8263 136.328 28.3212 136.206C28.0565 136.142 27.8219 136.127 27.6156 136.15L29.3558 139.164ZM33.9906 118.596C34.5284 120.799 35.1777 122.988 35.9397 125.156C36.0901 124.947 36.2792 124.752 36.512 124.581L40.9741 121.292C40.7432 120.563 40.5258 119.832 40.3223 119.098L34.7908 118.771C34.4991 118.754 34.2324 118.691 33.9906 118.596ZM150.387 51.3945C150.348 51.6513 150.27 51.9139 150.139 52.175L147.656 57.128C148.189 57.6712 148.714 58.2254 149.23 58.7902L154.31 56.5698C154.575 56.4541 154.838 56.3881 155.093 56.3622C153.597 54.6183 152.026 52.9615 150.387 51.3945ZM32.2363 107.753C32.421 110.019 32.718 112.284 33.128 114.54C33.3104 114.355 33.5295 114.19 33.7889 114.056L38.7068 111.507C38.5936 110.751 38.4942 109.994 38.4086 109.237L32.9978 108.049C32.7134 107.986 32.4598 107.884 32.2363 107.753ZM141.873 44.4533C141.874 44.7124 141.837 44.9833 141.749 45.2609L140.073 50.5409C140.686 50.9936 141.292 51.4582 141.89 51.9342L146.557 48.949C146.802 48.7917 147.054 48.6846 147.305 48.6192C145.556 47.1359 143.743 45.7464 141.873 44.4533ZM159.56 37.84L158.899 38.6339L156.893 36.9618L151.664 43.2386L150.724 42.455L155.953 36.1787L153.941 34.503L154.602 33.7099L159.56 37.84ZM25.1553 105.272L25.2731 106.476L17.8481 107.199L22.6568 109.444L22.7356 110.247L18.4445 113.426L25.8804 112.701L25.9948 113.878L16.8365 114.771L16.7066 113.431L21.3931 109.937L16.1253 107.471L15.9978 106.164L25.1553 105.272ZM146.849 31.1249C147.145 30.6923 147.495 30.3981 147.898 30.2437C148.305 30.0855 148.751 30.059 149.236 30.1647C149.722 30.2704 150.226 30.5025 150.749 30.8602C151.237 31.1946 151.631 31.5799 151.929 32.0157C152.227 32.4516 152.388 32.91 152.413 33.3907C152.441 33.8739 152.295 34.3505 151.973 34.8206L150.957 34.126C151.254 33.6998 151.318 33.2677 151.148 32.8309C150.98 32.3904 150.66 32.0094 150.19 31.6878C149.705 31.356 149.261 31.195 148.856 31.2052C148.458 31.2143 148.131 31.4053 147.876 31.7777C147.724 31.9995 147.655 32.2254 147.669 32.4556C147.685 32.682 147.793 32.9519 147.993 33.2652C148.197 33.5811 148.508 33.9789 148.925 34.4579C149.404 35.0172 149.763 35.5123 150.004 35.9424C150.249 36.375 150.362 36.7914 150.342 37.1918C150.322 37.5922 150.156 38.0223 149.842 38.481C149.507 38.9699 149.107 39.292 148.641 39.4483C148.178 39.6007 147.68 39.6144 147.149 39.488C146.617 39.3615 146.086 39.1164 145.555 38.7536C145.014 38.3831 144.581 37.9663 144.258 37.5023C143.935 37.0383 143.764 36.5403 143.746 36.0092C143.732 35.4807 143.92 34.9345 144.306 34.3703L145.327 35.0686C145.051 35.471 144.921 35.8467 144.937 36.1945C144.957 36.5448 145.08 36.866 145.305 37.1582C145.53 37.4503 145.816 37.7144 146.162 37.9511C146.482 38.1699 146.806 38.3226 147.133 38.4087C147.467 38.4935 147.779 38.494 148.068 38.4103C148.359 38.3228 148.61 38.1271 148.818 37.8228C148.998 37.5595 149.084 37.3002 149.075 37.046C149.067 36.7919 148.961 36.5036 148.757 36.1814C148.558 35.8579 148.258 35.4681 147.858 35.012C147.389 34.4705 147.031 33.9855 146.783 33.5566C146.538 33.1239 146.417 32.7116 146.42 32.321C146.426 31.9332 146.568 31.5346 146.849 31.1249ZM32.2073 96.773C32.0348 99.0412 31.9721 101.322 32.022 103.607C32.23 103.454 32.4705 103.326 32.7456 103.235L38.0085 101.485C38.0156 100.723 38.0367 99.961 38.0709 99.2006L32.904 97.177C32.6369 97.0724 32.4056 96.9341 32.2073 96.773ZM132.378 38.9382C132.419 39.1906 132.424 39.4601 132.381 39.7439L131.549 45.2309C132.225 45.5815 132.896 45.9434 133.56 46.3186L137.706 42.6356C137.923 42.4431 138.154 42.2986 138.39 42.1947C136.436 41.009 134.429 39.9231 132.378 38.9382ZM25.2565 95.8842L25.2229 97.1542L22.623 97.9617L22.5229 101.775L25.0745 102.759L25.041 104.023L15.9341 100.335L15.9682 99.0366L25.2565 95.8842ZM141.513 25.4516L141.504 30.5142L145.757 27.7791L146.95 28.4325L141.517 31.7695L139.755 34.9812L138.664 34.383L140.427 31.1713L140.326 24.8005L141.513 25.4516ZM33.8928 85.9229C33.3695 88.1359 32.9534 90.3748 32.6465 92.6313C32.8731 92.5159 33.1269 92.4296 33.4086 92.383L38.8879 91.4771C39.0135 90.7274 39.1527 89.9803 39.3047 89.236L34.5123 86.4256C34.2673 86.2819 34.0626 86.1108 33.8928 85.9229ZM122.14 34.9723C122.218 35.2135 122.264 35.4767 122.266 35.761L122.303 41.3171C123.024 41.5577 123.741 41.8101 124.453 42.0762L127.978 37.7834C128.159 37.5631 128.36 37.3865 128.573 37.248C126.465 36.3855 124.318 35.6257 122.14 34.9723ZM21.4997 101.413L21.5826 98.2827L17.1742 99.7251L21.4997 101.413ZM136.378 23.0306L133.11 30.4869L137.048 32.2128L136.623 33.1833L131.558 30.9633L135.252 22.5364L136.378 23.0306ZM18.4905 86.7844C18.9847 86.4764 19.5745 86.3374 20.2603 86.3693L20.0884 87.595C19.625 87.5852 19.2287 87.6862 18.8999 87.8978C18.5673 88.1042 18.3023 88.3819 18.106 88.7317C17.9103 89.0768 17.7832 89.4595 17.7242 89.879C17.6216 90.61 17.7054 91.2273 17.9753 91.7299C18.2459 92.2281 18.6444 92.6196 19.1703 92.9051C19.6962 93.1907 20.2999 93.382 20.9814 93.4776C21.6582 93.5727 22.2886 93.555 22.8727 93.4254C23.457 93.2957 23.946 93.028 24.3388 92.6229C24.7275 92.2128 24.9735 91.6425 25.0761 90.9117C25.18 90.1716 25.081 89.5454 24.7801 89.0337C24.4792 88.5223 23.9709 88.1794 23.2548 88.0052L23.4277 86.7733C24.1349 86.9462 24.7014 87.2392 25.1264 87.6531C25.5469 88.0665 25.8358 88.5652 25.9932 89.1486C26.1506 89.7321 26.1811 90.3673 26.0848 91.0533C25.9524 91.9965 25.6425 92.7631 25.1548 93.3527C24.6671 93.9423 24.0496 94.3551 23.3032 94.5909C22.5574 94.8221 21.7238 94.8724 20.8032 94.7431C19.8829 94.6139 19.0939 94.3354 18.4363 93.9074C17.7792 93.4746 17.2971 92.9071 16.9906 92.206C16.6841 91.5049 16.5968 90.6828 16.7292 89.7396C16.8167 89.117 17.0076 88.5458 17.3015 88.0257C17.596 87.501 17.9924 87.0872 18.4905 86.7844ZM130.125 20.6587L130.403 30.4635L129.198 30.0571L129.193 27.3356L125.579 26.1162L123.887 28.2658L122.689 27.8612L128.894 20.2439L130.125 20.6587ZM37.2475 75.46C36.385 77.5679 35.6252 79.7149 34.9718 81.8933C35.2129 81.8154 35.476 81.7705 35.7602 81.7686L41.3157 81.7309C41.5562 81.0103 41.8093 80.2937 42.0753 79.5817L37.783 76.0574C37.5622 75.8761 37.3862 75.6735 37.2475 75.46ZM111.403 32.6465C111.518 32.8733 111.606 33.1271 111.652 33.409L112.557 38.8893C113.306 39.0149 114.054 39.1535 114.798 39.3056L117.61 34.5127C117.753 34.268 117.923 34.0625 118.111 33.8928C115.898 33.3696 113.659 32.9534 111.403 32.6465ZM28.8921 78.1482L28.5706 79.3217L24.4504 78.1912L23.1194 83.044L27.2404 84.174L26.9147 85.3599L18.0406 82.9271L18.3663 81.7411L22.0918 82.7622L23.422 77.91L19.6973 76.8883L20.0189 75.7149L28.8921 78.1482ZM126.226 25.2452L129.192 26.2458L129.112 21.609L126.226 25.2452ZM42.1938 65.6444C41.0084 67.5981 39.9224 69.6044 38.9376 71.6549C39.19 71.6146 39.4593 71.6105 39.743 71.6534L45.2295 72.4844C45.5802 71.8086 45.9421 71.1379 46.3172 70.4739L42.6348 66.3281C42.4422 66.1113 42.2977 65.8806 42.1938 65.6444ZM100.428 32.0229C100.581 32.2309 100.709 32.4709 100.801 32.746L102.549 38.0086C103.311 38.0156 104.073 38.0381 104.833 38.0723L106.857 32.9049C106.962 32.6378 107.1 32.4065 107.261 32.2082C104.993 32.0357 102.713 31.973 100.428 32.0229ZM117.265 17.3179L120.702 25.5186L122.202 18.3521L123.346 18.5914L121.46 27.5976L120.23 27.3394L116.788 19.1255L115.285 26.304L114.147 26.0664L116.034 17.0602L117.265 17.3179ZM48.6187 56.7276C47.1352 58.4769 45.7452 60.2904 44.4519 62.161C44.7113 62.1593 44.9821 62.1971 45.26 62.2853L50.5391 63.9622C50.9921 63.3489 51.4572 62.7432 51.9334 62.1447L48.9486 57.4787C48.7909 57.2324 48.6841 56.9794 48.6187 56.7276ZM89.4935 33.1285C89.6789 33.3111 89.8445 33.53 89.9791 33.7898L92.5261 38.7073C93.2827 38.5941 94.04 38.4951 94.7978 38.4095L95.9859 32.9987C96.0484 32.7143 96.1506 32.4607 96.2815 32.2372C94.0151 32.4219 91.7499 32.7184 89.4935 33.1285ZM30.0572 74.6993L29.6299 75.8538L21.0015 72.6589L21.4288 71.5045L30.0572 74.6993ZM110.361 16.3437L112.914 25.8145L111.648 25.6998L111.008 23.0535L107.21 22.7092L106.064 25.1931L104.805 25.0788L109.067 16.2266L110.361 16.3437ZM34.1795 65.7125L33.6431 66.8498L24.8545 68.2896L31.4882 71.4182L30.9927 72.47L22.6708 68.5445L23.2072 67.4071L31.981 65.9669L25.3593 62.8437L25.8577 61.7869L34.1795 65.7125ZM56.3617 48.9397C54.6178 50.4363 52.961 52.0073 51.3939 53.6459C51.6508 53.6847 51.9129 53.7648 52.1741 53.8957L57.1275 56.3775C57.6704 55.8442 58.2243 55.3196 58.7888 54.8038L56.5694 49.7253C56.4534 49.46 56.3875 49.1961 56.3617 48.9397ZM78.8775 35.9402C79.0866 36.0908 79.2821 36.2797 79.4539 36.5129L82.7415 40.9747C83.4708 40.7436 84.2023 40.526 84.9359 40.3223L85.2632 34.7917C85.2805 34.5001 85.3422 34.2329 85.437 33.9911C83.2344 34.529 81.0455 35.1782 78.8775 35.9402ZM65.2261 42.4653C63.269 43.6729 61.3909 44.9619 59.5947 46.3266C59.8389 46.4052 60.082 46.5237 60.3162 46.6915L64.8294 49.9247C65.4468 49.4851 66.0738 49.0548 66.7108 48.6344L65.3092 43.2596C65.2375 42.9845 65.2132 42.7183 65.2261 42.4653ZM68.8374 40.3803C69.0632 40.4957 69.282 40.6491 69.4846 40.849L73.4385 44.7501C74.1208 44.4089 74.8067 44.0812 75.4958 43.7665L74.9532 38.2408C74.9251 37.9544 74.9432 37.6846 74.9971 37.434C72.9171 38.3073 70.8617 39.2891 68.8374 40.3803ZM107.637 21.7119L110.755 21.9946L109.597 17.503L107.637 21.7119ZM31.5048 54.2945L29.0473 58.2314L31.535 59.7844L33.7973 56.1599L34.6551 56.6964L32.3928 60.321L35.1128 62.0185L37.5707 58.0803L38.4403 58.6236L35.3305 63.6045L27.5255 58.7322L30.6352 53.7513L31.5048 54.2945ZM101.388 15.8383L101.434 16.8699L98.8245 16.9836L99.1792 25.1448L97.9569 25.1976L97.6022 17.0364L94.9861 17.1497L94.9413 16.119L101.388 15.8383ZM86.4987 17.3397L92.5905 23.8169L91.4867 16.5788L92.642 16.4022L94.0294 25.4985L92.786 25.6887L86.686 19.1993L87.7928 26.4504L86.6435 26.6257L85.2561 17.5294L86.4987 17.3397ZM41.2077 53.1591L43.9325 49.8336L44.752 50.505L41.2474 54.7825L34.1303 48.9515L34.9102 47.9994L41.2077 53.1591ZM79.6639 18.8648L85.3987 26.8212L84.1735 27.162L82.6415 24.9128L78.9654 25.9324L78.7718 28.6614L77.5539 28.9992L78.4128 19.2116L79.6639 18.8648ZM48.2711 42.2702C48.7506 42.7574 49.0895 43.2811 49.288 43.8402C49.4833 44.3958 49.4949 44.9725 49.3228 45.5702C49.1505 46.1618 48.7525 46.7655 48.1289 47.3793C47.515 47.9834 46.9091 48.3684 46.3116 48.5345C45.711 48.6972 45.1344 48.6761 44.5819 48.472C44.0261 48.2646 43.5082 47.9174 43.0287 47.4303L38.9718 43.3078L39.8583 42.4352L43.8103 46.4502C44.4813 47.1319 45.108 47.4736 45.6911 47.4753C46.2743 47.4703 46.8475 47.1917 47.4093 46.6389C47.9745 46.0826 48.2633 45.514 48.2743 44.934C48.2822 44.3508 47.9501 43.7179 47.2788 43.0359L43.3273 39.0217L44.2147 38.1485L48.2711 42.2702ZM49.085 34.1233C49.8155 33.5557 50.5131 33.2503 51.1778 33.2071C51.8461 33.161 52.4152 33.4403 52.885 34.0448C53.1813 34.4262 53.338 34.8502 53.3542 35.3165C53.3739 35.7802 53.242 36.1943 52.9593 36.5583C53.5273 36.2496 54.0851 36.14 54.6326 36.2281C55.1774 36.3127 55.6314 36.5886 55.9949 37.0564C56.336 37.4954 56.5317 37.9468 56.5807 38.4108C56.6268 38.8713 56.5173 39.337 56.2536 39.8073C55.99 40.2775 55.5595 40.7451 54.9622 41.2092L52.3989 43.2011L46.7529 35.9355L49.085 34.1233ZM67.8207 23.5588C68.2713 22.9405 68.9371 22.4504 69.8181 22.0887C70.3999 21.8499 70.9896 21.7258 71.587 21.717C72.1885 21.7065 72.7455 21.8405 73.2583 22.1176C73.7736 22.3889 74.1905 22.8284 74.5091 23.4365L73.3652 23.9064C73.1398 23.5013 72.852 23.2099 72.5034 23.0327C72.1574 22.8498 71.7833 22.7618 71.3824 22.7688C70.9857 22.7742 70.5913 22.8579 70.1994 23.0188C69.5167 23.2991 69.0266 23.6823 68.7288 24.1689C68.4353 24.6539 68.2973 25.1959 68.3163 25.7941C68.3352 26.3922 68.4759 27.0097 68.7372 27.6462C68.9968 28.2785 69.3304 28.8143 69.7371 29.2532C70.1438 29.6919 70.6209 29.9789 71.1687 30.1136C71.719 30.2423 72.3355 30.166 73.0184 29.8857C73.7098 29.6019 74.2004 29.201 74.4902 28.683C74.78 28.165 74.8195 27.5531 74.6084 26.8467L75.7595 26.3738C75.9673 27.0718 76.0001 27.7092 75.8572 28.2851C75.7126 28.8568 75.4276 29.3581 75.0033 29.7885C74.579 30.2187 74.0464 30.5651 73.4057 30.8281C72.5246 31.1898 71.706 31.309 70.9508 31.1854C70.1958 31.0619 69.5278 30.7372 68.9476 30.2119C68.3718 29.6849 67.9078 28.9913 67.5548 28.1315C67.2018 27.2716 67.044 26.4496 67.0817 25.6656C67.1237 24.8799 67.3701 24.1773 67.8207 23.5588ZM57.3263 28.4563C57.7813 28.1783 58.2375 27.9983 58.6949 27.9165C59.156 27.8323 59.5915 27.8759 60.0009 28.0477C60.41 28.2195 60.764 28.5504 61.0632 29.0401C61.3673 29.5378 61.4862 30.0473 61.4201 30.5683C61.3578 31.087 61.0971 31.5732 60.6364 32.0255C60.9581 31.8877 61.2591 31.8345 61.54 31.8658C61.8207 31.8972 62.1007 32.0006 62.3794 32.1773C62.6598 32.3477 62.9601 32.5892 63.2791 32.9016L64.9932 34.554L63.9195 35.21L62.3695 33.6816C62.0946 33.4064 61.8334 33.1898 61.5867 33.0308C61.3415 32.8655 61.0941 32.7791 60.844 32.7717C60.5915 32.7604 60.3153 32.8458 60.0159 33.0288L58.1728 34.1549L60.2043 37.4802L59.1538 38.1216L54.3568 30.27L57.3263 28.4563ZM63.3389 25.0266L67.5345 33.2154L66.4389 33.7769L62.2442 25.5876L63.3389 25.0266ZM53.7984 37.1699C53.3367 37.1996 52.841 37.4208 52.312 37.8318L50.7365 39.056L52.7408 41.637L54.3172 40.4122C54.6231 40.1746 54.8764 39.9168 55.0767 39.6399C55.2743 39.3595 55.3751 39.0618 55.3789 38.7472C55.3798 38.4291 55.2461 38.0972 54.9779 37.7519C54.6535 37.3344 54.26 37.1401 53.7984 37.1699ZM79.012 24.8489L82.0287 24.0116L79.3589 20.2193L79.012 24.8489ZM50.5795 34.4422C50.3028 34.5244 50.0093 34.6859 49.6998 34.9264L48.3454 35.979L50.124 38.2685L51.4792 37.2155C51.9469 36.852 52.22 36.4687 52.2997 36.0663C52.3802 35.6575 52.2798 35.2714 51.9974 34.9079C51.8073 34.6633 51.5934 34.5033 51.3561 34.428C51.1159 34.3491 50.8569 34.3536 50.5795 34.4422ZM55.9415 30.503L57.6382 33.2796L59.423 32.1893C59.7107 32.0135 59.9383 31.8 60.1051 31.5486C60.2717 31.2973 60.3599 31.0271 60.3702 30.7381C60.3842 30.4466 60.3023 30.1545 60.1243 29.863C59.8559 29.4237 59.5165 29.1607 59.1065 29.0748C58.7002 28.9866 58.2493 29.093 57.7554 29.3948L55.9415 30.503Z" fill="white"/>
</g>
<defs>
<clipPath id="clip0_425_660">
<rect width="205" height="205" fill="white"/>
</clipPath>
</defs>
</svg>
