<svg width="24" height="24" viewBox="0 0 24 24" fill="none" xmlns="http://www.w3.org/2000/svg">
<path d="M2.33496 10.3382C2.02171 10.0486 2.19187 9.52486 2.61557 9.47462L8.61914 8.76253C8.79182 8.74206 8.94181 8.63362 9.01465 8.47571L11.5469 2.98593C11.7256 2.59849 12.2764 2.59842 12.4551 2.98585L14.9873 8.4756C15.0601 8.6335 15.2092 8.74223 15.3818 8.76271L21.3857 9.47462C21.8094 9.52486 21.9791 10.0487 21.6659 10.3384L17.2278 14.4434C17.1001 14.5614 17.0433 14.7372 17.0771 14.9077L18.255 20.8374C18.3382 21.2559 17.8928 21.5801 17.5205 21.3717L12.2451 18.4181C12.0934 18.3331 11.9091 18.3335 11.7573 18.4185L6.48144 21.371C6.10913 21.5794 5.66294 21.2559 5.74609 20.8374L6.92414 14.9081C6.95803 14.7375 6.90134 14.5614 6.77367 14.4433L2.33496 10.3382Z" stroke="white" stroke-width="2" stroke-linecap="round" stroke-linejoin="round"/>
</svg>
