<svg xmlns="http://www.w3.org/2000/svg" width="43" height="43" fill="currentColor" viewBox="0 0 43 43">
  <path d="M40.072 22.87c1.111 0 2.014.906 2.014 2.017v15.248a2.019 2.019 0 0 1-2.014 2.017h-10.15a3.288 3.288 0 0 1-3.281-3.287V26.16a3.289 3.289 0 0 1 3.281-3.288h10.15ZM22.803 40.59a.737.737 0 0 1 .748.68.746.746 0 0 1-.679.805 20.01 20.01 0 0 1-1.312.072h-.019a.746.746 0 0 1-.016-1.493v.001c.408-.011.816-.034 1.219-.068l.052-.004.007.008Zm-8.238-.228a.747.747 0 0 1 .926-.503c.389.114.78.217 1.178.309h.001c.401.09.651.493.56.892v.002a.746.746 0 0 1-.89.561v.001a21.55 21.55 0 0 1-1.272-.335h-.002a.747.747 0 0 1-.501-.927Zm26.031-3.372c-.166.048-.34.077-.524.077h-10.15a1.798 1.798 0 0 0 0 3.593h10.15a.527.527 0 0 0 .524-.527V36.99Zm-4.965 1.13a.746.746 0 0 1 0 1.492h-5.71a.746.746 0 0 1 0-1.492h5.71Zm3.173 0a.745.745 0 0 1 0 1.492h-1.27a.746.746 0 0 1 0-1.492h1.27Zm-29.842-.688a.746.746 0 0 1 1.036-.193c.337.23.68.451 1.03.661a.748.748 0 0 1-.382 1.385.75.75 0 0 1-.382-.105 20.376 20.376 0 0 1-1.108-.711.748.748 0 0 1-.194-1.037Zm20.92-13.07a1.796 1.796 0 0 0-1.754 1.794v9.97a3.238 3.238 0 0 1 1.794-.549h10.15a.526.526 0 0 0 .524-.525V24.888a.526.526 0 0 0-.524-.526h-10.19ZM21.041 6.35c8.107 0 14.7 6.603 14.7 14.721 0 .117-.002.232-.005.345l-.016.338a.744.744 0 1 1-1.485-.093l.013-.293a9.72 9.72 0 0 0 .004-.297c0-7.296-5.928-13.23-13.21-13.231-7.286 0-13.212 5.937-13.213 13.231 0 7.297 5.93 13.233 13.212 13.233 1.438 0 2.853-.23 4.202-.684a.745.745 0 1 1 .475 1.413 14.59 14.59 0 0 1-4.677.765h-.108l-.001-.006c-8.057-.059-14.59-6.638-14.59-14.72 0-8.12 6.593-14.722 14.7-14.722ZM4.525 32.922a.744.744 0 0 1 1.047.13l.022.031c.242.313.495.62.755.917l.087.123a.746.746 0 0 1-.053.817l-.103.112a.744.744 0 0 1-1.051-.07c-.29-.33-.568-.667-.837-1.013a.748.748 0 0 1 .133-1.047ZM1.688 27.27a.742.742 0 0 1 .953.447c.136.377.284.748.441 1.115l.002.002.01.02a.747.747 0 1 1-1.37.592c-.086-.2-.169-.403-.249-.606l-.233-.616a.746.746 0 0 1 .446-.954Zm16.225-14.564c.537 0 1.054.157 1.496.457l7.97 5.316a3.11 3.11 0 0 1 1.385 2.596 3.08 3.08 0 0 1-.486 1.67.745.745 0 0 1-1.03.223v-.001a.743.743 0 0 1-.222-1.028c.163-.254.249-.552.249-.862 0-.55-.27-1.054-.72-1.353v-.001l-7.977-5.319a1.168 1.168 0 0 0-.665-.206c-.662 0-1.202.541-1.202 1.204V26.75c0 .663.538 1.204 1.202 1.204.237 0 .466-.072.66-.203l7.459-4.972a.746.746 0 0 1 .826 1.241l-7.454 4.97-.001-.002a2.642 2.642 0 0 1-1.49.458 2.697 2.697 0 0 1-2.692-2.696V15.402a2.697 2.697 0 0 1 2.692-2.696ZM.728 21.013c.378-.01.755.303.768.72.015.412.042.818.08 1.221a.746.746 0 0 1-.67.814l-.011.002v-.002a.744.744 0 0 1-.803-.673 22.52 22.52 0 0 1-.084-1.312.744.744 0 0 1 .719-.77Zm40.096-5.197a.744.744 0 0 1 .693.439l.048.143c.047.213.093.428.135.643l.115.65a.749.749 0 0 1-.735.865.747.747 0 0 1-.736-.625 19.451 19.451 0 0 0-.231-1.204.745.745 0 0 1 .56-.892l.15-.019ZM7.239 0a7.04 7.04 0 0 1 4.788 2.008 7.054 7.054 0 0 1 2.148 5.09c0 .407-.329.77-.745.77a.728.728 0 0 1-.745-.724c0-1.574-.603-3.002-1.697-4.067A5.57 5.57 0 0 0 7.202 1.49l-.285.001C4.045 1.58 1.61 3.986 1.494 6.854a5.61 5.61 0 0 0 2.739 5.06 3.247 3.247 0 0 1 1.507 2.258c.042.25.263.438.51.438a.746.746 0 0 1 0 1.492c-.018 0-.035-.002-.05-.003-.009.017-.017.035-.028.051l-.094.116a.51.51 0 0 0 .01.735l.1.113a.747.747 0 0 1-.604 1.18.744.744 0 0 1-.506-.196 2.013 2.013 0 0 1-.638-1.47c0-.422.133-.817.369-1.149a2.008 2.008 0 0 1-.537-1.06v-.001a1.762 1.762 0 0 0-.802-1.223l-.208-.128A7.096 7.096 0 0 1 .006 6.794l.023-.339C.347 2.972 3.349.11 6.874 0h.365ZM.802 15.27a.746.746 0 0 1 .922-.51l.139.055c.262.137.42.42.398.717l-.025.149c-.11.39-.212.786-.298 1.184l-.001.004a.748.748 0 0 1-.885.569.749.749 0 0 1-.572-.888l.152-.644c.054-.213.11-.425.17-.636Zm37.316-5.22a.744.744 0 0 1 1.021.26c.223.375.435.76.636 1.15l.055.14a.748.748 0 0 1-.377.864h-.002a.748.748 0 0 1-1.003-.323 19.434 19.434 0 0 0-.591-1.07.746.746 0 0 1 .26-1.02ZM7.722 9.53a.745.745 0 0 1 0 1.492h-1.27a.746.746 0 0 1 0-1.493h1.27Zm.632-1.907a.746.746 0 0 1 0 1.492H5.817a.746.746 0 0 1 0-1.492h2.537Zm25.55-2.293a.743.743 0 0 1 1.051-.065c.328.29.65.59.96.9a.745.745 0 1 1-1.054 1.054c-.143-.144-.29-.285-.438-.424l-.451-.412a.746.746 0 0 1-.067-1.053Zm-5.382-3.337a.742.742 0 0 1 .906-.254l.6.274c.198.093.394.19.589.29h.002a.745.745 0 1 1-.681 1.328 19.27 19.27 0 0 0-1.105-.524l-.067-.029v-.012a.742.742 0 0 1-.317-.941l.073-.132ZM17.998.23a.746.746 0 0 1 .075 1.483c-.405.064-.806.138-1.203.224a.669.669 0 0 1-.158.018H16.6V1.94a.742.742 0 0 1-.616-.577.745.745 0 0 1 .57-.885l.644-.13c.215-.04.432-.076.649-.109l.151-.009Zm5.093-.133c.439.041.874.098 1.304.168a.745.745 0 0 1 .617.854.744.744 0 0 1-.854.62v-.002a20.33 20.33 0 0 0-1.211-.154v-.001a.747.747 0 0 1-.668-.813l.029-.149a.75.75 0 0 1 .783-.523Z"/>
</svg>
