<svg xmlns="http://www.w3.org/2000/svg" width="44" height="44" fill="currentColor" viewBox="0 0 44 44">
  <path d="M24.556 0c.704 0 1.357.35 1.748.937l1.713 2.575v.002a.542.542 0 0 0 .279.209c.696.244 1.39.532 2.06.858h.001a.562.562 0 0 0 .352.05l3.032-.607.26-.036a2.095 2.095 0 0 1 1.639.61l3.677 3.685c.497.5.712 1.209.575 1.9l-.607 3.038a.551.551 0 0 0 .05.35c.326.672.612 1.367.855 2.064l.038.087a.538.538 0 0 0 .175.195l2.57 1.716a2.1 2.1 0 0 1 .935 1.75v5.21c0 .705-.35 1.36-.935 1.752L40.4 28.059a.569.569 0 0 0-.21.285c-.243.696-.532 1.39-.858 2.063a.552.552 0 0 0-.049.35l.607 3.038a2.101 2.101 0 0 1-.575 1.901l-3.677 3.684a2.099 2.099 0 0 1-1.639.611l-.259-.036-3.034-.608a.53.53 0 0 0-.347.05c-.673.326-1.367.613-2.062.856h-.001a.546.546 0 0 0-.281.212l-1.713 2.573a2.099 2.099 0 0 1-1.748.938h-5.201c-.705 0-1.358-.35-1.748-.938l-1.715-2.575a.525.525 0 0 0-.193-.174l-.086-.037a19.426 19.426 0 0 1-2.062-.86.55.55 0 0 0-.35-.05l-3.033.61v-.002a2.088 2.088 0 0 1-1.897-.574l-3.68-3.685a2.107 2.107 0 0 1-.572-1.899l.606-3.038a.55.55 0 0 0-.05-.349 19.447 19.447 0 0 1-.856-2.065.56.56 0 0 0-.212-.282l-2.57-1.716A2.1 2.1 0 0 1 0 24.592v-5.21c0-.706.35-1.359.936-1.75l2.57-1.717a.566.566 0 0 0 .21-.283c.244-.697.534-1.392.86-2.065a.552.552 0 0 0 .049-.35l-.607-3.037a2.101 2.101 0 0 1 .574-1.902L8.27 4.595a2.103 2.103 0 0 1 1.898-.575l3.034.608a.544.544 0 0 0 .347-.049 19.38 19.38 0 0 1 2.062-.857l.086-.037a.53.53 0 0 0 .196-.174L17.605.937A2.098 2.098 0 0 1 19.354 0h5.203Zm-5.207 1.558a.544.544 0 0 0-.367.142l-.087.102-1.713 2.576h-.002a2.1 2.1 0 0 1-1.064.818c-.638.223-1.275.486-1.893.787a2.078 2.078 0 0 1-1.33.178l-3.035-.608a.547.547 0 0 0-.493.15L5.688 9.386a.55.55 0 0 0-.15.494l.608 3.038c.09.45.029.912-.174 1.333-.3.62-.567 1.26-.79 1.898a2.11 2.11 0 0 1-.677.962l-.138.102-2.571 1.718a.546.546 0 0 0-.243.456v5.208c0 .183.09.352.244.455l2.57 1.717c.38.254.664.62.818 1.062l.174.48c.182.478.387.955.613 1.42.205.42.265.88.175 1.33l-.606 3.04a.548.548 0 0 0 .15.494l3.677 3.683c.13.13.313.186.495.15l3.034-.608a2.108 2.108 0 0 1 1.333.177c.618.3 1.254.565 1.894.788.442.154.812.437 1.066.819l1.712 2.575.088.102c.099.09.229.14.366.14h5.2c.184 0 .353-.09.456-.242l1.713-2.575V39.6a2.1 2.1 0 0 1 1.063-.818 17.601 17.601 0 0 0 1.894-.788 2.084 2.084 0 0 1 1.33-.177l3.034.608a.54.54 0 0 0 .493-.15l3.679-3.683a.55.55 0 0 0 .148-.494l-.606-3.04a2.1 2.1 0 0 1 .175-1.33l.217-.47c.212-.47.404-.95.57-1.43h.002c.153-.44.435-.808.813-1.062h.001l2.571-1.718.001-.001a.545.545 0 0 0 .243-.455v-5.211a.546.546 0 0 0-.244-.455l-2.57-1.716a2.09 2.09 0 0 1-.818-1.064 17.7 17.7 0 0 0-.786-1.898 2.092 2.092 0 0 1-.177-1.333l.607-3.038a.548.548 0 0 0-.15-.494L34.538 5.7a.543.543 0 0 0-.494-.15l-3.034.608a2.08 2.08 0 0 1-1.333-.174 18.064 18.064 0 0 0-1.896-.788 2.092 2.092 0 0 1-1.063-.818l-1.713-2.576V1.8a.544.544 0 0 0-.455-.243h-5.2Zm2.603 33.572a.78.78 0 0 1 .778.778v1.325a.78.78 0 0 1-.778.78.779.779 0 0 1-.776-.78v-1.325c0-.429.347-.778.776-.778Zm6.563-1.76a.777.777 0 0 1 1.061.284l.662 1.147a.777.777 0 0 1-1.343.78h-.002l-.662-1.15a.779.779 0 0 1 .284-1.062Zm-14.182.282a.778.778 0 1 1 1.345.779l-.662 1.147a.775.775 0 0 1-.967.33l-.095-.046a.779.779 0 0 1-.283-1.062l.662-1.148Zm7.618-20.397c4.078 0 7.396 3.322 7.396 7.406v5.968a3.43 3.43 0 0 1-3.423 3.43h-2.03a2.092 2.092 0 0 1-1.94 1.327 2.106 2.106 0 0 1 0-4.211c.882 0 1.632.553 1.94 1.326h2.03c1.02 0 1.85-.822 1.87-1.838-.172.05-.354.08-.545.08a2.106 2.106 0 0 1-2.101-2.105v-1.99a.778.778 0 1 1 1.553 0v1.99a.55.55 0 0 0 .548.548.549.549 0 0 0 .547-.548V20.66c0-3.227-2.622-5.851-5.843-5.851s-5.842 2.624-5.842 5.851v3.977c0 .302.246.548.547.548a.548.548 0 0 0 .546-.548v-1.99a.779.779 0 0 1 1.556 0v1.99a2.106 2.106 0 0 1-2.102 2.105 2.106 2.106 0 0 1-2.101-2.105V20.66c0-4.084 3.316-7.406 7.394-7.406ZM9.531 28.273a.777.777 0 1 1 .776 1.347l-1.147.662A.779.779 0 0 1 8.098 30a.78.78 0 0 1 .284-1.064l1.148-.663Zm23.786.285a.777.777 0 0 1 1.062-.285l1.146.665a.777.777 0 1 1-.777 1.346v-.002l-1.147-.662a.779.779 0 0 1-.284-1.062Zm-11.366.172a.548.548 0 1 0 .002 1.096.548.548 0 0 0-.002-1.096ZM8.055 21.21a.778.778 0 0 1 0 1.557H6.729a.779.779 0 0 1 0-1.557h1.326Zm29.12 0a.778.778 0 0 1 0 1.557h-1.324a.779.779 0 0 1 0-1.557h1.325Zm-2.426-7.519a.777.777 0 1 1 .776 1.347l-1.146.662a.779.779 0 0 1-1.062-.282.779.779 0 0 1 .284-1.063l1.148-.664Zm-26.652.283a.777.777 0 0 1 1.061-.284l1.147.664a.776.776 0 1 1-.777 1.346v-.002l-1.148-.662a.779.779 0 0 1-.283-1.062Zm5.855-5.862a.774.774 0 0 1 1.062.284l.662 1.147a.778.778 0 0 1-.671 1.166.778.778 0 0 1-.673-.388h-.002l-.661-1.147a.78.78 0 0 1 .283-1.064v.002Zm14.942.283a.777.777 0 1 1 1.344.778l-.662 1.148a.776.776 0 0 1-.967.33l-.094-.046a.779.779 0 0 1-.284-1.063l.663-1.147Zm-6.942-2.432c.43 0 .778.348.778.777v1.326a.78.78 0 0 1-.778.78.779.779 0 0 1-.776-.78V6.74c0-.429.347-.777.776-.777Z"/>
</svg>
