<svg xmlns="http://www.w3.org/2000/svg" width="42" height="34" fill="currentColor" viewBox="0 0 42 34">
  <path fill-rule="evenodd" d="M14 26.24a.722.722 0 0 1 .126-.433.756.756 0 0 1 1.041-.203A10.557 10.557 0 0 0 21 27.348c2.145 0 4.14-.635 5.801-1.724a.758.758 0 0 1 1.04.207.732.732 0 0 1-.21 1.024 12.06 12.06 0 0 1-6.63 1.972 12.09 12.09 0 0 1-5.5-1.314v1.19a.746.746 0 0 1-.75.739.744.744 0 0 1-.75-.74V26.24ZM26.836 8.377A10.657 10.657 0 0 0 21 6.653a10.56 10.56 0 0 0-5.833 1.744.757.757 0 0 1-1.04-.203.734.734 0 0 1 .206-1.026A12.073 12.073 0 0 1 21 5.175c1.814 0 3.552.397 5.102 1.108l-.204-.805a.738.738 0 0 1 .546-.897c.4-.1.81.14.909.538l.624 2.463a.739.739 0 0 1-.546.896.755.755 0 0 1-.596-.101ZM4.372 2.957A2.251 2.251 0 0 1 2.25 4.435C1.009 4.435 0 3.441 0 2.218S1.009.001 2.25.001a2.25 2.25 0 0 1 2.122 1.478h2.262c.367 0 .68.262.74.619l1.628 9.728h2.248c.414 0 .75.331.75.74a.745.745 0 0 1-.75.739H8.366a.748.748 0 0 1-.74-.62L5.998 2.958H4.372ZM3 2.218a.744.744 0 0 0-.75-.739c-.414 0-.75.33-.75.74 0 .407.336.738.75.738s.75-.33.75-.739Zm1.372 30.304A2.251 2.251 0 0 1 2.25 34C1.009 34 0 33.006 0 31.783c0-1.224 1.009-2.218 2.25-2.218a2.25 2.25 0 0 1 2.122 1.479h1.626l1.628-9.729a.748.748 0 0 1 .74-.619h2.884c.414 0 .75.33.75.74a.745.745 0 0 1-.75.738H9.002l-1.628 9.729a.748.748 0 0 1-.74.619H4.372ZM3 31.782a.744.744 0 0 0-.75-.738c-.414 0-.75.33-.75.739 0 .408.336.739.75.739s.75-.331.75-.74ZM4.372 17.74a2.251 2.251 0 0 1-2.122 1.478C1.009 19.217 0 18.223 0 17s1.009-2.217 2.25-2.217a2.25 2.25 0 0 1 2.122 1.478h6.878c.414 0 .75.33.75.739 0 .408-.336.74-.75.74H4.372ZM3 17a.744.744 0 0 0-.75-.74c-.414 0-.75.332-.75.74s.336.74.75.74S3 17.407 3 17ZM37.627 2.956h-1.625l-1.628 9.729a.748.748 0 0 1-.74.619H30.75a.744.744 0 0 1-.75-.74c0-.408.336-.738.75-.738h2.248l1.628-9.729a.748.748 0 0 1 .74-.619h2.261A2.251 2.251 0 0 1 39.75 0C40.991 0 42 .994 42 2.217c0 1.224-1.009 2.218-2.25 2.218a2.251 2.251 0 0 1-2.123-1.479ZM39 2.217c0 .409.336.74.75.74s.75-.331.75-.74a.744.744 0 0 0-.75-.739.745.745 0 0 0-.75.74Zm-1.373 30.304h-2.26a.748.748 0 0 1-.741-.619l-1.628-9.728H30.75a.744.744 0 0 1-.75-.74c0-.408.336-.739.75-.739h2.884c.367 0 .68.263.74.62l1.628 9.728h1.625a2.251 2.251 0 0 1 2.123-1.478c1.241 0 2.25.994 2.25 2.217s-1.009 2.217-2.25 2.217a2.251 2.251 0 0 1-2.123-1.478Zm1.373-.74c0 .41.336.74.75.74s.75-.33.75-.74a.744.744 0 0 0-.75-.738c-.414 0-.75.33-.75.739Zm-1.373-14.043H30.75A.744.744 0 0 1 30 17c0-.408.336-.739.75-.739h6.877a2.251 2.251 0 0 1 2.123-1.478c1.241 0 2.25.994 2.25 2.217 0 1.224-1.009 2.218-2.25 2.218a2.251 2.251 0 0 1-2.123-1.479ZM39 17c0 .409.336.74.75.74s.75-.331.75-.74a.744.744 0 0 0-.75-.739c-.414 0-.75.33-.75.74ZM23.04 9.523l.259.907c.268.093.532.2.79.324l.832-.462a.76.76 0 0 1 .797.037 8.203 8.203 0 0 1 2.05 2.021.73.73 0 0 1 .038.785l-.468.82c.125.254.234.514.328.779l.92.255a.74.74 0 0 1 .535.58 7.97 7.97 0 0 1 0 2.86.74.74 0 0 1-.535.58l-.92.256a7.075 7.075 0 0 1-.328.777l.468.82a.73.73 0 0 1-.037.786 8.206 8.206 0 0 1-2.051 2.022.76.76 0 0 1-.797.037l-.833-.462c-.257.124-.521.23-.79.323l-.258.907a.744.744 0 0 1-.589.527 8.32 8.32 0 0 1-2.902 0 .744.744 0 0 1-.589-.527l-.259-.907a7.28 7.28 0 0 1-.789-.323l-.833.462a.76.76 0 0 1-.796-.037 8.208 8.208 0 0 1-2.052-2.022.73.73 0 0 1-.037-.785l.469-.82a7.055 7.055 0 0 1-.329-.778l-.92-.255a.741.741 0 0 1-.535-.58 7.97 7.97 0 0 1 0-2.861.741.741 0 0 1 .535-.58l.92-.255c.094-.264.203-.525.329-.778l-.47-.82a.73.73 0 0 1 .038-.786 8.205 8.205 0 0 1 2.052-2.021.76.76 0 0 1 .796-.037l.833.462a7.28 7.28 0 0 1 .79-.324l.258-.907a.744.744 0 0 1 .589-.527 8.32 8.32 0 0 1 2.902 0c.283.05.512.255.59.527Zm-1.312.863a6.831 6.831 0 0 0-1.455 0l-.237.83a.744.744 0 0 1-.52.513c-.436.118-.854.29-1.246.508a.763.763 0 0 1-.737.002l-.763-.423c-.38.3-.726.64-1.03 1.014l.43.752a.731.731 0 0 1-.002.727 5.394 5.394 0 0 0-.515 1.227.744.744 0 0 1-.522.513l-.841.233a6.534 6.534 0 0 0 0 1.434l.841.233c.253.07.452.264.522.513.12.43.294.841.515 1.227.13.226.13.501.002.727l-.43.752a6.5 6.5 0 0 0 1.03 1.014l.763-.423a.763.763 0 0 1 .737.002c.392.218.81.39 1.245.508.253.068.45.264.521.514l.237.83c.483.051.97.051 1.455 0l.236-.83a.744.744 0 0 1 .521-.514c.435-.118.853-.29 1.245-.508a.763.763 0 0 1 .737-.002l.763.423c.38-.3.726-.64 1.03-1.014l-.43-.752a.733.733 0 0 1 .002-.727c.221-.386.396-.798.515-1.227a.744.744 0 0 1 .522-.513l.842-.233a6.546 6.546 0 0 0 0-1.434l-.842-.233a.744.744 0 0 1-.521-.513 5.396 5.396 0 0 0-.516-1.227.733.733 0 0 1-.002-.726l.43-.752a6.469 6.469 0 0 0-1.03-1.015l-.763.423a.763.763 0 0 1-.737-.002 5.566 5.566 0 0 0-1.245-.508.744.744 0 0 1-.521-.513l-.236-.83ZM21 12.102c2.743 0 4.969 2.194 4.969 4.897 0 2.704-2.226 4.897-4.969 4.897-2.743 0-4.969-2.193-4.969-4.897 0-2.703 2.226-4.896 4.97-4.896Zm0 1.479c-1.914 0-3.469 1.532-3.469 3.418 0 1.887 1.555 3.419 3.47 3.419 1.913 0 3.468-1.532 3.468-3.419 0-1.886-1.555-3.418-3.469-3.418Z" clip-rule="evenodd"/>
</svg>
