<svg xmlns="http://www.w3.org/2000/svg" width="22" height="18" fill="currentColor" viewBox="0 0 22 18">
  <path d="M1.35 7.839s9.729-3.95 13.1-5.34c1.297-.557 5.68-2.341 5.68-2.341s2.024-.776 1.86 1.114c-.056.784-.505 3.505-.954 6.454-.678 4.175-1.412 8.739-1.412 8.739s-.106 1.284-1.07 1.502c-.954.226-2.53-.775-2.807-1.002-.229-.161-4.22-2.665-5.68-3.893-.392-.33-.85-1.001.057-1.776 2.024-1.842 4.44-4.12 5.9-5.574.678-.662 1.355-2.22-1.46-.33a454.985 454.985 0 0 1-7.934 5.29s-.897.557-2.587.056c-1.681-.5-3.648-1.17-3.648-1.17s-1.355-.833.955-1.73Z"/>
</svg>
