<svg xmlns="http://www.w3.org/2000/svg" width="29" height="32" fill="none" viewBox="0 0 29 32">
  <path stroke="currentColor" stroke-linecap="round" stroke-linejoin="round" stroke-width="2" d="m19.333 11-6.666 6.667-3.334-3.334m18.334-1.391c0 10.947-8.28 15.855-11.79 17.444l-.005.002c-.37.167-.554.25-.974.322a4.667 4.667 0 0 1-1.128 0c-.421-.072-.608-.156-.98-.324C9.28 28.796 1 23.889 1 12.942V6.334c0-1.867 0-2.801.363-3.514.32-.628.83-1.137 1.457-1.457C3.533 1 4.467 1 6.334 1h16c1.867 0 2.799 0 3.512.363.627.32 1.138.83 1.458 1.457.363.712.363 1.645.363 3.508v6.614Z"/>
</svg>
